<?xml version="1.0" standalone="no"?>
<!DOCTYPE svg PUBLIC "-//W3C//DTD SVG 20010904//EN"
 "http://www.w3.org/TR/2001/REC-SVG-20010904/DTD/svg10.dtd">
<svg version="1.0" xmlns="http://www.w3.org/2000/svg"
 width="1796.000000pt" height="1796.000000pt" viewBox="0 0 1796.000000 1796.000000"
 preserveAspectRatio="xMidYMid meet">
<metadata>
Created by potrace 1.14, written by Peter Selinger 2001-2017
</metadata>
<g transform="translate(0.000000,1796.000000) scale(0.100000,-0.100000)"
fill="#000000" stroke="none">
<path d="M3420 13860 c-25 -5 -63 -11 -85 -15 -22 -3 -69 -13 -105 -22 -36 -8
-72 -16 -80 -17 -9 -1 -21 -5 -28 -10 -6 -4 -12 -4 -12 0 0 3 -6 2 -12 -4 -7
-5 -29 -13 -48 -17 -19 -4 -44 -12 -55 -18 -11 -6 -22 -12 -25 -12 -41 -7
-266 -110 -276 -126 -3 -5 -14 -9 -25 -9 -10 0 -19 -5 -19 -10 0 -6 -11 -15
-25 -20 -33 -13 -101 -57 -161 -105 -17 -13 -34 -22 -38 -18 -3 3 -6 2 -6 -4
0 -5 -26 -30 -57 -55 -91 -72 -265 -249 -318 -324 -11 -15 -29 -39 -41 -53
-25 -32 -105 -154 -132 -202 -42 -76 -47 -85 -62 -103 -8 -10 -13 -19 -11 -20
3 0 -7 -19 -21 -41 -13 -22 -44 -76 -68 -120 -24 -44 -50 -86 -57 -93 -7 -7
-13 -17 -13 -21 0 -7 -197 -357 -220 -391 -6 -8 -16 -26 -22 -40 -7 -14 -31
-56 -54 -95 -22 -38 -52 -90 -66 -115 -14 -25 -39 -68 -56 -97 -17 -28 -28
-54 -25 -57 4 -3 1 -6 -6 -6 -7 0 -17 -13 -22 -30 -6 -16 -16 -30 -22 -30 -6
0 -8 -3 -5 -6 3 -3 -30 -66 -73 -140 -43 -74 -79 -139 -79 -144 0 -6 -5 -10
-11 -10 -5 0 -7 -4 -4 -10 3 -5 1 -10 -4 -10 -6 0 -11 -4 -11 -9 0 -7 -59
-114 -100 -181 -5 -8 -35 -60 -66 -115 -32 -55 -68 -118 -80 -140 -13 -22 -30
-53 -39 -70 -9 -16 -21 -39 -28 -50 -6 -11 -45 -78 -86 -150 -40 -71 -97 -170
-126 -220 -29 -49 -68 -117 -86 -150 -19 -33 -42 -73 -51 -90 -32 -54 -149
-292 -152 -306 -1 -8 -8 -24 -14 -36 -7 -13 -10 -23 -6 -23 3 0 1 -6 -5 -13
-6 -8 -8 -17 -4 -20 3 -4 1 -7 -5 -7 -7 0 -11 -3 -10 -7 2 -10 -13 -75 -20
-88 -4 -5 -7 -16 -9 -24 -3 -25 -25 -116 -30 -131 -3 -8 -7 -22 -8 -30 -1 -8
-5 -37 -9 -65 -5 -27 -12 -77 -16 -110 -5 -33 -7 -152 -5 -265 3 -199 15 -300
50 -440 8 -30 16 -66 19 -80 11 -63 83 -247 142 -365 72 -146 134 -259 152
-277 7 -7 12 -15 12 -19 0 -7 12 -29 94 -169 15 -25 34 -61 44 -80 9 -19 20
-36 24 -38 5 -2 8 -8 8 -14 0 -6 14 -30 30 -55 17 -24 30 -46 30 -49 0 -3 22
-43 50 -90 27 -47 50 -89 50 -94 0 -6 3 -10 8 -10 4 0 17 -22 30 -50 13 -27
27 -50 32 -50 6 0 9 -4 8 -8 -2 -4 18 -44 44 -87 25 -44 56 -98 68 -120 12
-22 37 -65 56 -96 19 -31 34 -60 34 -64 0 -4 9 -19 19 -33 21 -30 75 -124 94
-162 6 -14 14 -27 17 -30 6 -6 20 -30 63 -110 17 -30 35 -58 41 -62 6 -4 7 -8
2 -8 -5 0 -2 -8 6 -17 8 -10 29 -43 45 -73 17 -30 42 -75 57 -100 15 -25 29
-53 33 -62 3 -10 10 -18 15 -18 5 0 7 -4 4 -9 -3 -5 1 -14 9 -21 8 -7 15 -18
15 -25 0 -8 3 -15 8 -17 4 -1 16 -21 28 -43 12 -22 44 -80 73 -128 28 -49 51
-93 51 -98 0 -5 5 -9 10 -9 6 0 10 -4 10 -8 0 -8 29 -63 81 -152 12 -19 41
-69 65 -111 24 -42 44 -81 44 -87 0 -5 4 -12 8 -14 5 -1 28 -39 53 -82 24 -43
51 -92 61 -108 25 -45 72 -113 81 -116 4 -2 7 -10 7 -17 0 -7 3 -15 8 -17 4
-1 26 -28 49 -58 34 -45 90 -110 152 -175 23 -25 121 -113 160 -145 24 -19 55
-45 69 -57 14 -13 28 -23 33 -23 4 0 14 -6 21 -13 38 -36 232 -148 346 -200
118 -54 323 -124 345 -119 4 1 7 -2 7 -7 0 -5 8 -8 17 -7 10 2 39 -3 65 -10
27 -7 48 -10 48 -8 0 2 10 0 23 -5 12 -5 61 -13 107 -17 104 -11 3649 -12
3740 -2 36 5 97 14 135 22 39 8 81 17 95 19 14 3 50 12 80 21 30 9 58 16 63
16 4 0 21 7 37 15 16 8 32 15 35 15 6 1 28 7 53 17 9 3 22 7 28 8 23 5 279
136 296 152 10 9 18 13 18 10 0 -8 119 76 215 152 64 50 204 186 265 257 67
78 110 133 110 142 0 6 3 12 8 14 8 3 92 123 92 132 0 3 25 46 55 97 30 50 55
95 55 100 0 5 5 9 11 9 5 0 8 4 5 9 -3 5 1 14 9 21 8 7 15 19 15 26 0 8 5 14
11 14 5 0 8 4 5 9 -3 4 3 18 12 29 10 12 27 39 37 62 10 22 22 40 27 40 4 0 8
5 8 11 0 10 78 148 90 159 3 3 6 12 8 20 2 8 9 22 16 30 6 8 21 32 31 53 11
20 24 37 29 37 5 0 7 2 4 6 -3 3 30 66 73 140 44 74 79 137 79 141 0 4 6 14
14 22 7 9 29 45 49 81 19 36 49 89 66 118 17 29 31 57 31 62 0 6 5 10 10 10 6
0 10 4 10 9 0 4 23 48 52 97 92 160 120 208 146 254 13 25 28 50 32 55 5 6 19
30 32 55 14 25 35 63 48 85 12 22 34 60 48 85 13 25 28 50 32 55 5 6 23 37 41
70 18 33 35 62 38 65 3 3 16 23 27 46 12 22 34 62 49 87 l27 47 -34 1 c-18 0
-412 0 -874 1 -593 0 -847 -3 -860 -10 -11 -6 -16 -12 -12 -12 4 0 -6 -21 -22
-47 -16 -27 -44 -76 -61 -110 -18 -35 -36 -63 -41 -63 -4 0 -8 -4 -8 -9 0 -13
-332 -595 -344 -603 -6 -4 -7 -8 -3 -8 5 0 0 -12 -11 -27 -10 -16 -43 -71 -72
-123 -29 -52 -59 -103 -68 -112 -8 -10 -12 -18 -9 -18 4 0 -7 -21 -23 -48 -17
-26 -36 -59 -42 -74 -7 -16 -16 -28 -20 -28 -4 0 -8 -5 -8 -11 0 -23 -144
-256 -183 -298 -79 -82 -174 -142 -267 -169 -38 -11 -3497 -14 -3515 -4 -5 4
-21 8 -33 10 -44 6 -149 62 -197 105 -42 37 -76 81 -111 142 -51 90 -157 272
-164 280 -4 6 -20 33 -35 60 -15 28 -39 70 -53 95 -13 25 -28 50 -32 55 -8 10
-174 296 -218 375 -14 25 -29 47 -34 48 -4 2 -6 8 -2 13 3 5 0 9 -5 9 -6 0
-11 5 -11 10 0 6 -16 36 -35 66 -19 30 -35 56 -35 58 0 3 -20 39 -45 80 -25
42 -45 81 -45 86 0 6 -4 10 -9 10 -5 0 -15 15 -22 33 -7 17 -19 38 -26 45 -7
7 -13 20 -13 28 0 8 -4 14 -10 14 -5 0 -10 4 -10 10 0 5 -25 50 -55 101 -30
50 -55 93 -55 94 0 2 -18 33 -40 69 -22 36 -40 70 -40 76 0 5 -4 10 -10 10 -5
0 -10 4 -10 9 0 5 -36 70 -80 145 -44 76 -80 141 -80 146 0 4 -4 10 -8 12 -5
2 -22 28 -39 58 -36 65 -159 278 -173 300 -6 8 -13 22 -17 30 -4 8 -37 64 -73
125 -196 326 -217 378 -215 535 2 132 20 181 143 394 99 171 141 246 166 291
6 11 15 23 19 26 5 3 8 9 8 13 -1 3 5 16 13 29 38 61 126 220 126 228 0 5 4 9
9 9 5 0 14 12 20 28 6 15 22 47 37 72 15 25 35 59 44 75 55 95 95 165 118 205
13 25 28 50 32 55 4 6 19 31 33 57 14 25 60 106 103 180 42 73 90 158 107 188
16 30 35 62 41 70 6 8 16 24 22 35 22 40 97 172 163 287 10 18 62 110 116 203
53 94 105 182 116 197 10 15 19 34 19 42 0 8 4 16 8 18 5 2 60 93 122 203 63
110 123 214 132 230 10 17 24 41 31 55 16 32 92 107 117 115 11 4 20 11 20 16
0 6 4 8 8 5 5 -3 20 1 34 8 20 11 368 13 1854 13 1135 0 1840 -3 1859 -9 16
-5 36 -10 43 -11 6 0 12 -4 12 -9 0 -4 6 -8 13 -8 29 0 108 -87 156 -172 27
-48 46 -81 110 -191 28 -49 51 -93 51 -98 0 -5 4 -9 9 -9 5 0 11 -8 15 -17 3
-10 14 -31 23 -48 10 -16 34 -57 53 -90 19 -33 42 -72 50 -86 8 -14 37 -63 63
-110 26 -46 59 -102 73 -124 13 -22 27 -47 31 -55 4 -8 33 -59 65 -112 32 -53
58 -102 58 -108 0 -5 5 -10 10 -10 6 0 10 -9 10 -19 0 -10 7 -21 15 -25 8 -3
14 -9 13 -13 -2 -7 42 -87 106 -193 46 -77 57 -96 62 -112 4 -10 10 -18 15
-18 5 0 9 -9 9 -20 0 -11 3 -20 8 -20 4 0 18 -21 32 -47 13 -27 27 -50 30 -53
3 -3 16 -25 29 -50 47 -87 71 -120 89 -121 9 0 404 -1 878 -2 683 -2 861 1
861 11 0 6 -4 12 -9 12 -5 0 -6 5 -3 10 3 6 1 10 -4 10 -6 0 -11 4 -11 10 0 5
-31 63 -70 128 -38 65 -70 124 -70 130 0 7 -3 12 -8 12 -4 0 -18 21 -32 48
-14 26 -50 90 -81 142 -48 82 -88 152 -133 235 -6 11 -13 22 -16 25 -5 5 -12
16 -58 99 -14 25 -44 78 -67 116 -22 39 -44 77 -48 85 -4 8 -17 31 -28 50 -12
19 -93 161 -182 315 -88 154 -170 296 -183 316 -13 20 -20 40 -17 43 4 3 2 6
-3 6 -5 0 -23 26 -39 58 -17 31 -33 59 -37 60 -5 2 -8 7 -8 12 0 5 -28 55 -61
112 -34 57 -72 121 -84 143 -95 173 -236 410 -246 413 -5 2 -9 8 -9 13 0 9
-46 72 -114 154 -55 67 -190 201 -251 249 -28 22 -54 45 -60 51 -14 15 -147
105 -225 152 -74 45 -192 103 -265 131 -27 10 -59 22 -70 27 -24 10 -22 9
-110 35 -86 26 -86 26 -160 41 -33 7 -62 15 -65 18 -3 3 -21 7 -40 8 -19 0
-69 6 -110 12 -89 12 -3689 13 -3760 1z"/>
<path d="M5777 9446 c-63 -23 -168 -81 -175 -98 -2 -5 -8 -8 -14 -8 -13 0 -96
-87 -127 -135 -14 -22 -28 -42 -31 -45 -4 -3 -14 -23 -24 -45 -9 -22 -21 -48
-26 -57 -6 -10 -10 -26 -10 -36 0 -10 -3 -22 -7 -26 -17 -16 -25 -208 -12
-276 12 -63 17 -84 19 -87 6 -7 24 -68 22 -71 -2 -1 2 -8 8 -15 6 -6 28 -39
49 -72 43 -68 88 -117 146 -160 22 -17 42 -33 45 -36 6 -7 113 -59 120 -58 3
0 23 -6 45 -15 36 -15 318 -16 3135 -13 1702 1 3104 5 3115 9 11 4 22 7 25 8
3 1 10 3 15 4 6 1 23 7 38 14 16 7 32 12 36 12 4 0 18 10 31 23 14 12 27 21
30 20 8 -2 90 54 85 58 -2 3 8 13 23 23 56 37 150 192 178 291 10 38 21 111
18 117 -3 4 0 17 6 28 6 11 7 20 3 20 -4 0 -8 19 -9 43 -1 98 -15 151 -71 267
-28 56 -57 95 -117 156 -45 44 -96 87 -114 95 -17 7 -32 17 -32 21 0 5 -5 8
-10 8 -6 0 -29 8 -53 19 -23 10 -61 24 -83 30 -30 8 -869 11 -3125 11 l-3084
0 -68 -24z"/>
<path d="M15347 7343 c-2 -1 -25 -5 -53 -8 -128 -13 -240 -39 -357 -82 -43
-16 -79 -33 -79 -38 0 -6 -5 -21 -10 -35 -6 -14 -11 -38 -13 -55 -2 -16 -6
-39 -8 -50 -3 -11 -11 -49 -18 -85 -7 -36 -16 -67 -19 -70 -3 -3 -5 -14 -6
-25 -1 -24 -11 -77 -24 -130 -14 -57 -13 -58 18 -37 29 20 139 75 144 72 2 -1
21 5 43 14 92 35 187 50 320 50 104 0 154 -20 194 -75 39 -52 36 -186 -5 -226
-8 -8 -14 -18 -14 -22 0 -19 -122 -127 -214 -191 -28 -19 -52 -38 -54 -42 -2
-5 -8 -8 -12 -8 -7 0 -76 -46 -314 -213 -17 -12 -33 -24 -36 -27 -3 -3 -30
-25 -60 -50 -30 -25 -71 -61 -90 -81 -52 -53 -120 -130 -120 -135 0 -2 -12
-23 -27 -47 -42 -65 -62 -106 -88 -177 -26 -72 -41 -125 -60 -222 -9 -46 -11
-53 -16 -63 -2 -5 -4 -23 -4 -40 l0 -30 728 0 c720 0 728 0 732 20 21 100 36
173 40 190 2 11 11 51 19 89 9 38 13 73 10 77 -3 5 -1 9 4 9 5 0 9 6 10 13 0
6 4 28 7 47 4 19 8 39 8 45 1 5 -150 9 -395 9 -351 1 -398 3 -398 16 0 19 81
91 153 137 29 18 61 39 72 48 10 8 23 15 28 15 4 0 28 13 52 30 24 16 54 34
67 40 13 5 30 14 38 20 8 5 65 39 125 76 61 37 112 71 113 75 2 5 8 9 14 9 15
0 97 68 165 137 101 103 178 255 187 369 2 25 6 47 8 49 10 10 -7 209 -20 229
-3 6 -7 17 -8 24 -2 8 -6 21 -10 30 -4 9 -8 19 -8 22 -1 3 -15 28 -32 55 -37
60 -116 138 -172 170 -50 28 -151 65 -201 73 -37 6 -349 10 -354 5z"/>
<path d="M17140 7343 c-235 -37 -439 -161 -561 -340 -18 -26 -35 -50 -38 -53
-28 -24 -177 -344 -181 -385 0 -3 0 -6 -1 -7 0 -2 -2 -10 -4 -18 -2 -8 -13
-47 -24 -86 -11 -39 -23 -84 -25 -100 -3 -16 -8 -40 -12 -54 -3 -14 -7 -41 -9
-60 -2 -19 -6 -44 -9 -55 -24 -100 -24 -348 0 -485 29 -170 139 -339 277 -425
31 -20 57 -32 57 -28 0 4 4 3 8 -2 8 -12 93 -42 142 -51 97 -16 205 -19 290
-8 25 4 59 8 75 9 17 1 43 8 58 14 16 6 32 11 37 11 18 0 130 53 130 61 0 5 6
9 14 9 19 0 151 106 199 160 49 55 127 165 127 178 0 6 3 12 8 14 12 5 100
198 131 288 16 47 38 124 50 171 23 92 25 99 36 169 4 25 9 53 11 63 18 97 24
362 11 456 -10 70 -55 211 -76 235 -9 10 -14 19 -12 20 7 2 -41 76 -50 76 -5
0 -9 5 -9 11 0 11 -25 37 -86 89 -49 42 -186 103 -264 117 -34 6 -269 11 -300
6z m167 -479 c36 -39 46 -97 39 -224 -7 -129 -9 -143 -37 -289 -12 -57 -23
-115 -25 -127 -2 -13 -8 -34 -13 -46 -5 -13 -9 -27 -10 -33 -10 -60 -66 -233
-99 -305 -14 -30 -24 -58 -24 -62 1 -5 -3 -8 -8 -8 -5 0 -10 -6 -10 -14 0 -7
-17 -33 -39 -57 -85 -97 -191 -75 -220 46 -11 48 -3 254 14 335 3 14 8 41 11
60 3 19 12 62 19 95 8 33 16 72 19 87 2 15 14 62 26 105 12 43 23 83 24 88 1
6 4 15 7 20 8 14 23 68 21 78 -1 4 3 7 8 7 6 0 9 3 8 8 -1 4 4 19 10 35 32 78
53 116 81 147 17 19 31 38 31 41 0 6 43 30 75 40 31 10 68 -1 92 -27z"/>
<path d="M10385 7310 c-2 -3 -7 -23 -11 -45 -10 -52 -11 -55 -14 -57 -1 -2 -4
-14 -5 -28 -6 -38 -10 -54 -18 -67 -5 -7 -5 -17 -2 -23 3 -5 3 -16 -2 -22 -4
-7 -8 -22 -9 -33 -3 -24 -13 -74 -20 -97 -3 -10 -8 -30 -10 -45 -3 -16 -27
-131 -54 -258 -27 -126 -51 -242 -54 -258 -3 -15 -7 -35 -10 -45 -5 -16 -7
-27 -21 -97 -3 -16 -8 -37 -10 -45 -2 -8 -7 -31 -10 -50 -3 -19 -10 -51 -15
-70 -5 -19 -12 -53 -15 -75 -4 -22 -9 -49 -12 -60 -4 -11 -8 -27 -9 -35 -3
-19 -8 -43 -45 -212 -16 -76 -31 -150 -33 -165 -2 -16 -9 -48 -16 -73 -7 -25
-13 -52 -15 -60 -5 -28 -19 -105 -20 -110 0 -3 -3 -9 -6 -15 -3 -5 -5 -19 -5
-30 1 -19 8 -20 314 -20 347 0 314 -6 327 61 2 10 4 20 5 22 2 1 4 11 5 22 1
11 4 21 5 23 1 1 4 13 6 27 5 32 12 65 14 65 1 0 4 11 5 25 4 28 13 65 15 65
1 0 3 9 4 20 7 45 16 94 32 160 9 39 18 81 20 95 2 14 7 36 10 50 3 14 8 34
10 45 2 11 6 30 9 43 5 21 9 39 20 92 3 14 8 36 11 50 3 14 7 34 9 45 2 11 11
56 21 100 9 44 18 87 19 95 2 8 4 17 5 20 1 3 2 8 2 11 -1 3 5 30 13 59 8 29
12 57 9 62 -3 4 0 8 6 8 6 0 9 4 6 8 -3 5 -1 24 4 43 5 19 11 45 14 59 2 14
12 58 20 97 9 40 18 87 21 105 3 18 8 41 11 50 7 23 48 216 58 273 2 11 8 40
14 64 6 25 9 48 6 52 -2 4 -1 10 4 13 4 2 9 20 10 38 l2 33 -311 0 c-171 0
-312 -2 -314 -5z"/>
<path d="M11430 7312 c-6 -2 -8 -8 -4 -13 3 -5 2 -15 -2 -21 -5 -7 -9 -19 -10
-28 -6 -48 -15 -94 -33 -172 -11 -47 -23 -101 -26 -120 -3 -18 -12 -61 -20
-96 -8 -34 -17 -77 -20 -95 -4 -17 -11 -52 -16 -77 -6 -25 -12 -56 -14 -70 -3
-14 -9 -45 -16 -70 -16 -65 -30 -142 -32 -167 0 -7 -4 -13 -8 -13 -4 0 -6 -8
-4 -17 1 -10 0 -22 -3 -28 -4 -5 -7 -19 -8 -30 0 -11 -5 -31 -9 -45 -5 -14
-10 -36 -11 -50 -1 -14 -2 -25 -4 -25 -1 0 -4 -11 -5 -25 -2 -14 -8 -43 -14
-65 -5 -22 -12 -51 -15 -65 -9 -47 -36 -175 -56 -270 -11 -52 -23 -106 -25
-120 -3 -14 -14 -65 -25 -115 -11 -49 -22 -105 -25 -124 -3 -19 -8 -37 -10
-41 -4 -7 -9 -32 -20 -100 l-5 -35 312 1 c172 1 316 2 320 3 3 0 5 12 3 26 -1
14 1 25 5 25 4 0 7 6 7 13 1 17 11 82 13 82 2 0 8 27 15 60 8 43 14 66 21 77
5 7 3 8 -5 3 -10 -6 -11 -3 -3 11 10 18 16 48 29 124 3 19 9 36 13 38 5 2 6
10 4 17 -3 8 -1 29 5 47 6 18 12 44 15 58 2 14 9 52 16 86 l12 60 305 0 c168
-1 308 1 313 4 8 5 55 200 65 275 2 11 4 20 5 20 2 0 8 27 15 65 8 44 22 97
29 108 9 15 -43 28 -104 25 -30 -2 -61 -3 -67 -3 -12 0 -208 0 -235 0 -31 0
-213 7 -214 9 0 0 7 40 17 89 9 48 25 128 35 177 10 50 23 93 28 97 6 4 38 8
71 8 33 0 67 1 75 2 8 0 20 -1 25 -2 6 -1 123 -2 261 -1 l251 1 7 48 c4 26 9
54 11 62 2 8 6 29 10 45 3 17 8 39 11 50 8 38 34 160 40 185 3 14 7 34 9 45 1
11 6 28 10 38 4 9 3 18 -1 18 -21 3 -1305 4 -1314 1z"/>
<path d="M12890 7270 c-6 -25 -13 -61 -16 -80 -2 -19 -10 -53 -16 -75 -6 -22
-13 -52 -14 -67 -2 -15 -8 -47 -14 -70 -18 -72 -19 -81 -25 -120 l-6 -38 292
0 291 0 -6 -27 c-3 -16 -9 -44 -11 -63 -3 -19 -8 -44 -12 -55 -4 -11 -7 -27
-8 -35 -1 -8 -5 -28 -9 -45 -3 -16 -9 -40 -11 -52 -3 -13 -7 -33 -10 -45 -10
-47 -26 -126 -31 -152 -2 -16 -11 -56 -19 -90 -8 -33 -16 -73 -19 -89 -3 -15
-7 -35 -10 -45 -3 -9 -7 -30 -10 -46 -3 -16 -11 -55 -17 -85 -6 -31 -13 -63
-14 -71 -2 -8 -4 -15 -5 -15 -1 0 -3 -12 -5 -26 -2 -14 -8 -44 -15 -67 -6 -24
-8 -47 -5 -52 3 -6 2 -10 -3 -10 -5 0 -9 -6 -9 -12 0 -7 -3 -26 -7 -43 -3 -16
-8 -43 -11 -59 -3 -16 -11 -38 -16 -49 -8 -15 -8 -18 1 -12 9 6 9 2 1 -14 -7
-11 -9 -21 -7 -21 3 0 1 -11 -4 -24 -5 -13 -12 -43 -15 -66 -3 -23 -10 -53
-15 -66 -5 -13 -8 -24 -5 -24 2 0 -1 -15 -6 -32 -5 -18 -12 -51 -15 -73 l-5
-40 316 0 c271 0 316 2 320 15 2 8 7 31 10 50 3 19 11 55 16 80 6 25 12 54 15
65 2 11 6 31 9 45 3 14 7 35 10 48 2 13 7 32 10 43 4 11 8 32 11 47 2 15 5 34
7 42 2 8 7 33 12 55 4 22 10 49 12 60 2 11 6 31 9 45 2 14 7 36 11 50 10 40
11 43 18 89 3 23 10 54 15 67 5 13 8 24 5 24 -2 0 1 15 6 33 5 17 12 46 14 62
5 29 12 59 76 360 17 77 33 154 36 170 8 43 11 60 13 60 1 0 4 18 6 40 3 22
10 43 17 47 7 4 142 8 300 8 221 0 289 3 292 13 3 6 7 23 9 37 3 14 5 25 6 25
1 0 3 9 5 20 2 11 6 34 10 50 4 17 9 41 10 55 2 14 4 26 5 28 1 1 3 10 5 20 1
9 4 24 8 32 5 12 36 167 41 205 1 5 -338 9 -906 10 l-907 0 -11 -45z"/>
</g>
</svg>
