<svg xmlns="http://www.w3.org/2000/svg" width="85.097" height="84.597" viewBox="0 0 85.097 84.597">
    <g id="about-menu-deactive" transform="translate(337.584 -698.657)">
        <path id="s"
            d="M-8233.895-6850.4a45.39,45.39,0,0,1-11.893-1.609,39.132,39.132,0,0,1-5.118-1.8,51.508,51.508,0,0,1-10.67-6.976,50.155,50.155,0,0,1-7.411-8.622,55.223,55.223,0,0,1-4.4-7.025,39.734,39.734,0,0,1-3.1-12.791,42.653,42.653,0,0,1,5.941-24.951,43.037,43.037,0,0,1,19.254-17.126c4.649-2.111,9.293-2.693,14.208-3.31l.052-.006c.605-.076,1.23-.155,1.854-.236a18.322,18.322,0,0,1,2.356-.144,40.046,40.046,0,0,1,10.723,1.812,41.281,41.281,0,0,1,13.128,6.421,42.3,42.3,0,0,1,9.9,10.227,43.161,43.161,0,0,1,6.011,12.893,42.715,42.715,0,0,1,1.468,14.419,39.782,39.782,0,0,1-3.635,14.054,42.372,42.372,0,0,1-8.143,11.765,42.988,42.988,0,0,1-25.55,12.712A42.267,42.267,0,0,1-8233.895-6850.4Zm-2.575-48.962c-.982,0-1.8.026-2.57.081a4.427,4.427,0,0,0-4.049,4.558,3.754,3.754,0,0,0,3.568,3.983v10.3h-.009a5.029,5.029,0,0,0-3.793,1.3,4.345,4.345,0,0,0-1.17,3.485,4.2,4.2,0,0,0,1.78,3.124,6.193,6.193,0,0,0,3.6.814l.514,0c.154,0,.336,0,.518,0h8.143c1.592,0,3.116-.089,4.283-1.161a3.852,3.852,0,0,0,1.167-4.381,5.215,5.215,0,0,0-4.812-3.171v-10.3a3.8,3.8,0,0,0,3.435-2.931,4.508,4.508,0,0,0-1.679-4.863,5.6,5.6,0,0,0-3.338-.763h-.812c-.78,0-1.581-.017-2.355-.034h-.018C-8234.814-6899.347-8235.659-6899.366-8236.47-6899.366Zm2.177-17.412a7.966,7.966,0,0,0-1.395.128,6.319,6.319,0,0,0-5.333,7.079c.28,3.148,2.568,6.336,6.4,6.336a7.572,7.572,0,0,0,1.331-.121,6.4,6.4,0,0,0,5.474-7.128A6.6,6.6,0,0,0-8234.293-6916.778Z"
            transform="translate(7939.001 7633.658)" fill="#0194fe" />
    </g>
</svg>
