<svg xmlns="http://www.w3.org/2000/svg" width="48.172" height="46.445" viewBox="0 0 48.172 46.445">
  <g id="alarm-clock" transform="translate(0 -20.608)">
    <path id="Path_213" d="M7.339,22.685A8.434,8.434,0,0,0,0,31.207a7.985,7.985,0,0,0,1.662,4.986c.605.774,1.233,1.433,2.289,1.3a3.364,3.364,0,0,0,1.788-1.206l2.634-2.634,4.516-4.516c.649-.649,1.625-1.353,1.916-2.258.386-1.2-.455-2.013-1.352-2.658a8.641,8.641,0,0,0-6.115-1.535m31.33,0a9.31,9.31,0,0,0-2.352.645c-1.156.491-3.017,1.449-3.061,2.89-.034,1.077.962,1.852,1.65,2.54l4.8,4.8c1.222,1.222,3.219,4.236,5.175,3.931.748-.116,1.276-.826,1.7-1.391a8.7,8.7,0,0,0,1.59-5.645C48.114,25.663,43.264,22.027,38.669,22.685Z" transform="translate(0 -2)" fill="#fff"/>
    <path id="Path_214" d="M36.221,67.166l3.387-3.293L42.9,60.486c-4.16-1.6-8.7,2.336-6.68,6.68M70,60.486l3.293,3.387,3.387,3.293C78.7,62.827,74.156,58.884,70,60.486Z" transform="translate(-32.363 -35.984)" fill="#02c6c2"/>
    <path id="Path_215" d="M66.267,108.774v.094a20.4,20.4,0,0,0-2.637,2.823,7.1,7.1,0,0,0-1.6,1.976,1.739,1.739,0,0,0,2.164,2.276c1.369-.429,2.62-2.571,3.573-3.594.316-.339.8-1.177,1.32-1.183.539-.007,1.391.727,1.882.972a20.272,20.272,0,0,0,3.952,1.42,18.4,18.4,0,0,0,14.489-2.62,6.948,6.948,0,0,0,1.315,1.6c1.048,1.125,3.388,4.937,5.221,2.98a1.862,1.862,0,0,0,.293-1.945,8.654,8.654,0,0,0-1.646-1.976,19.1,19.1,0,0,0-2.548-2.728,20.389,20.389,0,0,0,5.292-10.349,19.2,19.2,0,0,0-1.026-9.6,17.328,17.328,0,0,0-4.925-7.083,18.422,18.422,0,0,0-29.058,21.29A15.072,15.072,0,0,0,66.267,108.774Z" transform="translate(-55.071 -49.53)" fill="#fff" stroke="#fff" stroke-width="1"/>
    <path id="Path_216" d="M111.494,112.394a15.843,15.843,0,0,0-9.126,3.92,15.159,15.159,0,0,0,1.6,23.333,14.763,14.763,0,0,0,4.986,2.238,14.575,14.575,0,0,0,5.175.361,15.224,15.224,0,0,0,13.344-13.521C128.31,120.071,120.513,111.209,111.494,112.394Z" transform="translate(-88.444 -81.242)" fill="#159498"/>
    <path id="Path_217" d="M229.217,187.933v-5.457a2.722,2.722,0,0,0-.667-2.292,1.744,1.744,0,0,0-2.75.975c-.4,1.723-.064,3.877-.064,5.645a13.084,13.084,0,0,0,.087,3.293,1.622,1.622,0,0,0,1.23,1.191,32.457,32.457,0,0,0,5.833.032c.768,0,1.562.033,2.06-.667a1.755,1.755,0,0,0-.743-2.613C232.83,187.534,230.677,187.933,229.217,187.933Z" transform="translate(-204.379 -142.426)" fill="#fff"/>
  </g>
</svg>
