<svg xmlns="http://www.w3.org/2000/svg" width="186.505" height="142.297"
    viewBox="0 0 186.505 142.297">
    <g id="avatar_background" transform="translate(0 0)">
        <path id="Path_768"
            d="M154.092,18.635c-35.886,0-57.992,20.242-58.053,20.276a6.625,6.625,0,0,0-1.091,1.91,105.177,105.177,0,0,0-2.7,20.566c0,51.5,43.431,93.242,94.933,93.242,19.832,0,41.9-9.505,56.664-20.934a15.319,15.319,0,0,0,1.379-1.974,91.254,91.254,0,0,0,2.121-19.835,93.253,93.253,0,0,0-93.253-93.253Z"
            transform="translate(-60.84 -18.635)" fill="#afe6ff" />
        <path id="Path_769"
            d="M135.65,185.257A93.313,93.313,0,0,1,44.516,72.172,93.281,93.281,0,0,0,23.241,194.193l161.154-4.28a92.686,92.686,0,0,0,9.305-24.93A92.849,92.849,0,0,1,135.65,185.257Z"
            transform="translate(-9.317 -51.896)" fill="#73c8f0" />
    </g>
</svg>
