<svg xmlns="http://www.w3.org/2000/svg" width="161.154" height="193.562" viewBox="0 0 161.154 193.562">
  <g id="avatar3" transform="translate(0)">
    <g id="Group_543" transform="translate(109.88 55.295)">
      <g id="Group_542">
        <g id="Group_541">
          <path id="Path_770" d="M339.179,169.232H338.8L336.212,156.5,338.8,146h.379a9.163,9.163,0,0,1,9.162,9.162v4.9A9.162,9.162,0,0,1,339.179,169.232Z"
              transform="translate(-336.212 -146.004)" fill="#ff965a" />
        </g>
      </g>
    </g>
    <path id="Path_771" d="M247.066,334.318l-17.83-3.946-62.926-1.5V377.3a14.778,14.778,0,0,0,14.258,14.769l47.113,1.658a93.057,93.057,0,0,0,23.944-11.368l17.788-20.208A28.506,28.506,0,0,0,247.066,334.318Z" transform="translate(-120.777 -204.32)" fill="#ff3c3c"/>
    <g id="Group_546" transform="translate(60.004 99.754)">
      <g id="Group_545">
        <g id="Group_544">
          <path id="Path_772" d="M218.284,307.988a13.764,13.764,0,0,0,13.764-13.764V263.393H204.519v30.831A13.765,13.765,0,0,0,218.284,307.988Z" transform="translate(-204.519 -263.393)" fill="#ff965a"/>
        </g>
      </g>
    </g>
    <g id="Group_547" transform="translate(60.004 99.753)">
      <path id="Path_773" d="M213.759,291.738h0a38.923,38.923,0,0,1-9.241-1.627V263.392h25.245L232.049,284C228.659,289.46,219.184,292.029,213.759,291.738Z" transform="translate(-204.52 -263.392)" fill="#ef6a30"/>
    </g>
    <g id="Group_550" transform="translate(47.318 27.411)">
      <g id="Group_549">
        <g id="Group_548">
          <path id="Path_774" d="M234.812,96.426c0-12.562-8.059-24.048-20.62-24.048H180.752a19.521,19.521,0,0,0-9.731,2.567v66.394a26.421,26.421,0,0,0,26.146,26.46h.3c21.582,0,35.669-17.5,35.669-39.078l3.409-12.337Z" transform="translate(-171.021 -72.378)" fill="#ffbe82"/>
        </g>
      </g>
    </g>
    <g id="Group_553" transform="translate(112.847 62.506)">
      <g id="Group_552">
        <g id="Group_551">
          <path id="Path_775" d="M344.047,173.85v-8.808a3.474,3.474,0,0,1,3.474,3.474v1.859A3.474,3.474,0,0,1,344.047,173.85Z" transform="translate(-344.047 -165.042)" fill="#ef6a30"/>
        </g>
      </g>
    </g>
    <g id="Group_556" transform="translate(25.141 55.295)">
      <g id="Group_555">
        <g id="Group_554">
          <path id="Path_776" d="M112.465,160.069a9.163,9.163,0,0,0,9.162,9.163h.588l4.691-9.882L122.294,146h-.667a9.163,9.163,0,0,0-9.162,9.162v4.9Z" transform="translate(-112.465 -146.004)" fill="#ff965a"/>
        </g>
      </g>
    </g>
    <g id="Group_559" transform="translate(30.577 62.184)">
      <g id="Group_558">
        <g id="Group_557">
          <path id="Path_777" d="M126.818,169.916a3.727,3.727,0,0,0,3.727,3.727v-9.449a3.727,3.727,0,0,0-3.727,3.727Z" transform="translate(-126.818 -164.194)" fill="#ef6a30"/>
        </g>
      </g>
    </g>
    <g id="Group_562" transform="translate(28.075 65.957)">
      <g id="Group_561">
        <g id="Group_560">
          <path id="Path_778" d="M120.212,180.308a6.229,6.229,0,0,0,6.229,6.229V174.155a6.229,6.229,0,0,0-6.229,6.229Z" transform="translate(-120.212 -174.155)" fill="#fff"/>
        </g>
      </g>
    </g>
    <g id="Group_565" data-name="Group 565" transform="translate(56.884 69.153)">
      <g id="Group_564" data-name="Group 564" transform="translate(0)">
        <g id="Group_563" data-name="Group 563">
          <path id="Path_779" data-name="Path 779" d="M196.281,182.593v2.756a3.255,3.255,0,0,0,6.51,0v-2.756Z" transform="translate(-196.281 -182.593)" fill="#ff965a"/>
        </g>
      </g>
    </g>
    <g id="Group_568" data-name="Group 568" transform="translate(83.404 69.153)">
      <g id="Group_567" data-name="Group 567">
        <g id="Group_566" data-name="Group 566">
          <path id="Path_780" data-name="Path 780" d="M266.3,182.593v2.756a3.255,3.255,0,0,0,6.51,0v-2.756Z" transform="translate(-266.305 -182.593)" fill="#ff965a"/>
        </g>
      </g>
    </g>
    <g id="Group_571" data-name="Group 571" transform="translate(56.884 57.145)">
      <g id="Group_570" data-name="Group 570" transform="translate(0)">
        <g id="Group_569" data-name="Group 569">
          <path id="Path_781" data-name="Path 781" d="M199.536,166.3a3.255,3.255,0,0,1-3.255-3.255v-4.187l1.2-1.817-1.2-1.817v-1.081a3.255,3.255,0,0,1,6.51,0v8.9A3.255,3.255,0,0,1,199.536,166.3Z" transform="translate(-196.281 -150.887)" fill="#373c41"/>
        </g>
      </g>
    </g>
    <g id="Group_574" data-name="Group 574" transform="translate(83.404 57.145)">
      <g id="Group_573" data-name="Group 573">
        <g id="Group_572" data-name="Group 572">
          <path id="Path_782" data-name="Path 782" d="M269.56,166.3a3.255,3.255,0,0,1-3.255-3.255v-4.187l1.2-1.817-1.2-1.817v-1.081a3.255,3.255,0,0,1,6.51,0v8.9A3.255,3.255,0,0,1,269.56,166.3Z" transform="translate(-266.305 -150.887)" fill="#373c41"/>
        </g>
      </g>
    </g>
    <g id="Group_578" data-name="Group 578" transform="translate(51.681 49.008)">
      <g id="Group_577" data-name="Group 577" transform="translate(0)">
        <g id="Group_576" data-name="Group 576">
          <g id="Group_575" data-name="Group 575">
            <path id="Path_783" data-name="Path 783" d="M195.288,135.912H185.8a3.255,3.255,0,0,1,0-6.51h9.492a3.255,3.255,0,1,1,0,6.51Z" transform="translate(-182.542 -129.402)" fill="#373c41"/>
          </g>
        </g>
      </g>
    </g>
    <g id="Group_582" data-name="Group 582" transform="translate(78.804 49.008)">
      <g id="Group_581" data-name="Group 581" transform="translate(0)">
        <g id="Group_580" data-name="Group 580">
          <g id="Group_579" data-name="Group 579">
            <path id="Path_784" data-name="Path 784" d="M266.9,135.912h-9.492a3.255,3.255,0,1,1,0-6.51H266.9a3.255,3.255,0,1,1,0,6.51Z" transform="translate(-254.158 -129.402)" fill="#373c41"/>
          </g>
        </g>
      </g>
    </g>
    <g id="Group_583" data-name="Group 583" transform="translate(60.114 90.562)">
      <path id="Path_785" data-name="Path 785" d="M230.448,239.123H227.1l-8.826,1.832-8.826-1.832H206.48a1.657,1.657,0,0,0-1.657,1.854,13.678,13.678,0,0,0,1.827,5.214l17.872,5.3a13.777,13.777,0,0,0,7.583-10.51,1.657,1.657,0,0,0-1.657-1.854Z" transform="translate(-204.809 -239.123)" fill="#be1423"/>
    </g>
    <g id="Group_584" data-name="Group 584" transform="translate(34.304 27.411)">
      <path id="Path_786" data-name="Path 786" d="M208.854,82.83c.373,0,.742-.018,1.109-.045-3.509-6.155-9.478-10.408-17.118-10.408H159.4a19.521,19.521,0,0,0-9.731,2.567v.832c-7.352,3.43-12.152,10.775-12.152,19.788l-.861,20.82,3.788,11.95c0,22.555,15.111,40.61,37.8,39.408a39.48,39.48,0,0,1-28.439-37.9c.1-2.22,0-23.736,0-31.909,0-.058,0-.116,0-.175a15.165,15.165,0,0,1,15.224-14.97Z" transform="translate(-136.66 -72.377)" fill="#ff965a"/>
    </g>
    <g id="Group_585" data-name="Group 585" transform="translate(56.885 60.281)">
      <path id="Path_787" data-name="Path 787" d="M197.482,165.2a1.2,1.2,0,0,1-1.2-1.2v-3.633a1.2,1.2,0,1,1,2.4,0V164A1.2,1.2,0,0,1,197.482,165.2Z" transform="translate(-196.282 -159.169)" fill="#fff"/>
    </g>
    <g id="Group_586" data-name="Group 586" transform="translate(83.404 60.281)">
      <path id="Path_788" data-name="Path 788" d="M267.5,165.2a1.2,1.2,0,0,1-1.2-1.2v-3.633a1.2,1.2,0,1,1,2.4,0V164A1.2,1.2,0,0,1,267.5,165.2Z" transform="translate(-266.305 -159.169)" fill="#fff"/>
    </g>
    <g id="Group_587" data-name="Group 587" transform="translate(61.956 94.227)">
      <path id="Path_789" data-name="Path 789" d="M209.673,252.2a13.768,13.768,0,0,0,17.869,5.3,10.336,10.336,0,0,0-17.869-5.3Z" transform="translate(-209.673 -248.8)" fill="#ff3c3c"/>
    </g>
    <g id="Group_588" data-name="Group 588" transform="translate(64.749 90.562)">
      <path id="Path_790" data-name="Path 790" d="M232.759,242.788H218.99a1.942,1.942,0,0,1-1.942-1.942v-1.723H234.7v1.723A1.942,1.942,0,0,1,232.759,242.788Z" transform="translate(-217.048 -239.123)" fill="#fff"/>
    </g>
    <g id="Group_589" data-name="Group 589" transform="translate(34.304 4.95)">
      <path id="Path_791" data-name="Path 791" d="M158.929,13.071a22.291,22.291,0,0,0-22.27,22.291V59.786h0V79.539a5.234,5.234,0,0,0,5.234-5.234V51.193c0-.031,0-.061,0-.092a8.339,8.339,0,0,1,8.389-8.2l12.131.012V30.438c0-12.3,9.967-17.355,22.27-17.367H158.929Z" transform="translate(-136.659 -13.071)" fill="#262a2d"/>
    </g>
    <g id="Group_590" data-name="Group 590" transform="translate(30.874 70.852)">
      <path id="Path_792" data-name="Path 792" d="M129.306,203.248a1.7,1.7,0,0,1-1.7-1.7V188.783a1.7,1.7,0,1,1,3.409,0v12.761A1.7,1.7,0,0,1,129.306,203.248Z" transform="translate(-127.602 -187.079)" fill="#fff"/>
    </g>
    <g id="Group_593" data-name="Group 593" transform="translate(112.847 66.904)">
      <g id="Group_592" data-name="Group 592">
        <g id="Group_591" data-name="Group 591">
          <path id="Path_793" data-name="Path 793" d="M350.276,182.809a6.229,6.229,0,0,1-6.229,6.229V176.656a6.229,6.229,0,0,1,6.229,6.229Z" transform="translate(-344.047 -176.656)" fill="#fff"/>
        </g>
      </g>
    </g>
    <g id="Group_594" data-name="Group 594" transform="translate(112.868 71.799)">
      <path id="Path_794" data-name="Path 794" d="M345.808,205.75a1.7,1.7,0,0,1-1.7-1.7v-12.76a1.7,1.7,0,1,1,3.409,0v12.76a1.7,1.7,0,0,1-1.7,1.7Z" transform="translate(-344.104 -189.581)" fill="#fff"/>
    </g>
    <path id="Path_795" data-name="Path 795" d="M141.04,317.179l-21.393-4.734L84.99,320.137,67.13,324.1a28.512,28.512,0,0,0-21.048,19.367,93.654,93.654,0,0,0,39.4,35.249l6.665-11.644V351.93c0-.037,0-.075,0-.112a5.8,5.8,0,0,1,8.9-4.853,34.863,34.863,0,0,0,53.416-25.978l.081-.821Z" transform="translate(-46.082 -194.114)" fill="#dc1428"/>
    <g id="Group_595" data-name="Group 595" transform="translate(34.303 66.184)">
      <path id="Path_796" data-name="Path 796" d="M209.967,174.755l0,.027a33.177,33.177,0,0,1-13.648,25.281,35.041,35.041,0,0,1-40.775,0,33.171,33.171,0,0,1-13.65-25.312l-5.234,5.234,4.71,45.4a34.859,34.859,0,0,0,69.363-.17L215.2,179.99Z" transform="translate(-136.658 -174.755)" fill="#373c41"/>
    </g>
    <g id="Group_596" data-name="Group 596" transform="translate(34.304 66.184)">
      <path id="Path_797" data-name="Path 797" d="M162.958,225.388,160.646,203.1a35.11,35.11,0,0,1-5.1-3.033,33.171,33.171,0,0,1-13.65-25.312l-5.234,5.234,4.71,45.4a34.878,34.878,0,0,0,45.467,29.555,34.87,34.87,0,0,1-23.879-29.555Z" transform="translate(-136.659 -174.755)" fill="#262a2d"/>
    </g>
    <g id="Group_597" data-name="Group 597" transform="translate(51.075)">
      <path id="Path_798" data-name="Path 798" d="M242.714,29.778C242.823,12.822,238.427,0,222.3,0L199.858.026C179.721-.706,175.385,31.5,188.184,41.673c6.673,5.3,26.115-4.359,34.9-4.167l.19,0a14.591,14.591,0,0,1,14.19,14.649c-.01,3.389-.013,7.911.016,14.025a5.234,5.234,0,0,0,5.234,5.234c0-4.878,0-41.64,0-41.64Z" transform="translate(-180.943)" fill="#373c41"/>
    </g>
    <g id="Group_598" data-name="Group 598" transform="translate(47.844 78.557)">
      <ellipse id="Ellipse_90" data-name="Ellipse 90" cx="13.18" cy="9.604" rx="13.18" ry="9.604" fill="#373c41"/>
    </g>
    <g id="Group_599" data-name="Group 599" transform="translate(73.151 78.557)">
      <ellipse id="Ellipse_91" data-name="Ellipse 91" cx="13.18" cy="9.604" rx="13.18" ry="9.604" fill="#373c41"/>
    </g>
    <g id="Group_602" data-name="Group 602" transform="translate(68.274 64.443)">
      <g id="Group_601" data-name="Group 601">
        <g id="Group_600" data-name="Group 600">
          <path id="Path_799" data-name="Path 799" d="M226.577,182.891c-.809,3.231.661,6.75,3.473,7.811a5.089,5.089,0,0,0,3.6,0c2.812-1.061,4.283-4.58,3.473-7.811l-2.682-10.711a2.671,2.671,0,0,0-5.183,0Z" transform="translate(-226.356 -170.157)" fill="#ff965a"/>
        </g>
      </g>
    </g>
    <g id="Group_603" data-name="Group 603" transform="translate(34.304 52.296)">
      <path id="Path_800" data-name="Path 800" d="M136.659,138.084v19.122a5.234,5.234,0,0,0,5.234-5.234V138.084Z" transform="translate(-136.659 -138.084)" fill="#262a2d"/>
    </g>
    <path id="Path_801" data-name="Path 801" d="M390.133,344.883a18.819,18.819,0,0,0-11.06,3.665V380.57a2.273,2.273,0,0,1-1.538,2.247,2.5,2.5,0,0,1-1.128.253h-4.865a24.161,24.161,0,0,0,7.588,9.236,93.671,93.671,0,0,0,11.3-8.814l13.879-15.856a93,93,0,0,0,5.128-8.295C405.978,350.787,398.634,344.883,390.133,344.883Z" transform="translate(-248.282 -214.267)" fill="#dc1428"/>
    <g id="Group_621" data-name="Group 621" transform="translate(116.802 105.962)">
      <g id="Group_606" data-name="Group 606" transform="translate(11.85)">
        <g id="Group_605" data-name="Group 605">
          <g id="Group_604" data-name="Group 604">
            <path id="Path_802" data-name="Path 802" d="M402.394,317.248a5.653,5.653,0,0,1-3.379-1.119c-13.99-10.383-13.256-30.09-13.218-30.924a5.678,5.678,0,0,1,11.345.5c-.006.145-.456,14.555,8.64,21.305a5.679,5.679,0,0,1-3.388,10.238Z" transform="translate(-385.779 -279.787)" fill="#ffbe82"/>
          </g>
        </g>
      </g>
      <g id="Group_608" data-name="Group 608" transform="translate(11.85 0.56)">
        <g id="Group_607" data-name="Group 607">
          <path id="Path_803" data-name="Path 803" d="M408.043,313.06a5.67,5.67,0,0,0-2.26-5.131,20.027,20.027,0,0,1-6.628-9.39,9.543,9.543,0,0,1-9.406-7.761,43.912,43.912,0,0,1-.772-9.2c0-.107.02-.211.031-.317a5.675,5.675,0,0,0-3.21,4.859,45.584,45.584,0,0,0,1.484,12.415c2.55,7.591,4.541,13.171,11.734,18.509A5.675,5.675,0,0,0,408.043,313.06Z" transform="translate(-385.78 -281.265)" fill="#ff965a"/>
        </g>
      </g>
      <g id="Group_610" data-name="Group 610" transform="translate(1.817 19.987)">
        <g id="Group_609" data-name="Group 609">
          <path id="Path_804" data-name="Path 804" d="M383.442,343.462h-18.7a5.451,5.451,0,0,1,0-10.9h18.7a5.451,5.451,0,1,1,0,10.9Z" transform="translate(-359.288 -332.56)" fill="#ffbe82"/>
        </g>
      </g>
      <g id="Group_611" data-name="Group 611" transform="translate(1.817 23.62)">
        <path id="Path_805" data-name="Path 805" d="M380.017,349.423a3.634,3.634,0,0,0-3.634-3.634H364.739a5.448,5.448,0,0,1-5.134-3.634,5.367,5.367,0,0,0-.164,3.089,5.585,5.585,0,0,0,5.468,4.18Z" transform="translate(-359.288 -342.155)" fill="#ff965a"/>
      </g>
      <g id="Group_613" transform="translate(0 30.789)">
        <g id="Group_612">
          <path id="Path_806" d="M380.462,371.984h-20.52a5.451,5.451,0,0,1,0-10.9h20.52a5.451,5.451,0,1,1,0,10.9Z" transform="translate(-354.491 -361.082)" fill="#ffbe82"/>
        </g>
      </g>
      <g id="Group_614" transform="translate(0 34.196)">
        <path id="Path_807" d="M377.036,377.573a4.088,4.088,0,0,0-4.088-4.088H359.942a5.451,5.451,0,0,1-5.051-3.407,5.434,5.434,0,0,0-.341,2.846,5.556,5.556,0,0,0,5.545,4.649h16.942Z" transform="translate(-354.491 -370.078)" fill="#ff965a"/>
      </g>
      <g id="Group_616" transform="translate(1.817 41.591)">
        <g id="Group_615">
          <path id="Path_808" d="M383.442,400.506h-18.7a5.451,5.451,0,0,1,0-10.9h18.7a5.451,5.451,0,0,1,0,10.9Z" transform="translate(-359.288 -389.604)" fill="#ffbe82"/>
        </g>
      </g>
      <g id="Group_617" transform="translate(1.817 44.998)">
        <path id="Path_809" d="M380.017,406.095a4.088,4.088,0,0,0-4.088-4.088H364.739a5.451,5.451,0,0,1-5.051-3.407,5.434,5.434,0,0,0-.341,2.846,5.556,5.556,0,0,0,5.545,4.649h15.126Z" transform="translate(-359.288 -398.6)" fill="#ff965a"/>
      </g>
      <g id="Group_619" transform="translate(3.634 52.393)">
        <g id="Group_618">
          <path id="Path_810" d="M385.26,418.126H369.537a5.451,5.451,0,0,0,0,10.9H385.26Z" transform="translate(-364.086 -418.126)" fill="#ffbe82"/>
        </g>
      </g>
      <g id="Group_620" transform="translate(3.634 55.8)">
        <path id="Path_811" d="M383,434.617a4.088,4.088,0,0,0-4.088-4.088h-9.372a5.451,5.451,0,0,1-5.051-3.407,5.434,5.434,0,0,0-.341,2.846,5.556,5.556,0,0,0,5.545,4.649H383Z" transform="translate(-364.086 -427.122)" fill="#ff965a"/>
      </g>
      <path id="Path_812" d="M418.908,332.692h-5.289v43.226h2.952a93.573,93.573,0,0,0,13.879-15.856,64.894,64.894,0,0,0-1.013-18.8,10.726,10.726,0,0,0-10.529-8.573Z" transform="translate(-391.226 -312.655)" fill="#ffbe82"/>
    </g>
    <path id="Path_813" d="M190.038,472.177a93.135,93.135,0,0,0,27.576-4.155v-8.806a10.759,10.759,0,0,0-10.759-10.759H160.865a10.759,10.759,0,0,0-10.759,10.759v4A92.893,92.893,0,0,0,190.038,472.177Z" transform="translate(-110.71 -278.615)" fill="#fff"/>
  </g>
</svg>
