<svg xmlns="http://www.w3.org/2000/svg" width="90.814" height="84.111" viewBox="0 0 90.814 84.111">
    <g id="_crown-menu-deactive" transform="translate(0.002 0)">
        <path id="Subtraction_3"
            d="M85.414,84.111H5.4a5.6,5.6,0,0,1-3.808-1.422A4.365,4.365,0,0,1,.106,79.517L.024,71.386l.113-3.164L.106,64.7V29.912a3.142,3.142,0,0,1,.562-2.758,3.32,3.32,0,0,1,2.6-1.286,3.187,3.187,0,0,1,1.909.649L19.5,43.75,43.569,1.628a3.236,3.236,0,0,1,5.616,0L73.256,43.75,85.64,26.517a5.763,5.763,0,0,1,3.253-1.2,1.938,1.938,0,0,1,1.6.637,2.028,2.028,0,0,1,.211,1.8l-.006.5a3.21,3.21,0,0,1,.006,1.659L90.275,64.7l.216,14.817A4.355,4.355,0,0,1,89.007,82.8,5.363,5.363,0,0,1,85.414,84.111ZM46.379,32.349A3.209,3.209,0,0,0,43.6,33.92L33.9,50.1a3.234,3.234,0,0,0,0,3.33L43.6,69.6a3.236,3.236,0,0,0,5.547,0l9.706-16.176a3.241,3.241,0,0,0,0-3.33L49.15,33.92A3.208,3.208,0,0,0,46.379,32.349Z"
            transform="translate(-0.002 0)" fill="#0194fe" />
    </g>
</svg>
