<svg xmlns="http://www.w3.org/2000/svg" xmlns:xlink="http://www.w3.org/1999/xlink" width="128.705" height="180.06" viewBox="0 0 128.705 180.06">
  <defs>
    <linearGradient id="linear-gradient" x1="0.121" y1="0.061" x2="0.831" y2="0.939" gradientUnits="objectBoundingBox">
      <stop offset="0" stop-color="#6766c4"/>
      <stop offset="1" stop-color="#30305c"/>
    </linearGradient>
  </defs>
  <path id="door-open" d="M142.339,31.506h-28.9V26.524a10.791,10.791,0,0,0-10.787-10.791,11.211,11.211,0,0,0-2.434.278L38.036,31.359A10.838,10.838,0,0,0,29.5,41.91V176.1a10.86,10.86,0,0,0,9.269,10.684l62.353,8.9a10.611,10.611,0,0,0,1.516.108h.011A10.8,10.8,0,0,0,113.438,185v-6.142h28.9A15.885,15.885,0,0,0,158.205,163V47.372a15.883,15.883,0,0,0-15.866-15.866ZM79.583,118.787a6.646,6.646,0,0,1-3.106-3.095,7.775,7.775,0,0,1,6.8-11.44h.371A7.137,7.137,0,0,1,90.1,108.2a7.8,7.8,0,0,1-10.518,10.591ZM147.013,163a4.679,4.679,0,0,1-4.674,4.674h-28.9V42.7h28.9a4.679,4.679,0,0,1,4.674,4.674Z" transform="translate(-29.5 -15.733)" fill="url(#linear-gradient)"/>
</svg>
