<?xml version="1.0" encoding="UTF-8" standalone="no"?>
<!DOCTYPE svg PUBLIC "-//W3C//DTD SVG 1.1//EN" "http://www.w3.org/Graphics/SVG/1.1/DTD/svg11.dtd">
<svg height="100%" stroke-miterlimit="10" style="fill-rule:nonzero;clip-rule:evenodd;stroke-linecap:round;stroke-linejoin:round;" version="1.1" viewBox="0 0 146.495 124" width="100%" xml:space="preserve" xmlns="http://www.w3.org/2000/svg"   xmlns:xlink="http://www.w3.org/1999/xlink">
<defs/>
<g id="double_user"  >
<path d="M128.364 88.022C126.126 71.4431 112.075 59.0092 95.347 58.805C78.6194 59.0097 64.5689 71.4435 62.331 88.022C61.7927 91.8219 62.9275 95.6686 65.442 98.568C67.8756 101.38 71.4091 102.999 75.128 103.005L115.568 103.005C119.287 102.999 122.82 101.381 125.254 98.57C127.769 95.6706 128.903 91.8239 128.365 88.024L128.364 88.022Z" fill="#ffffff" fill-rule="evenodd" opacity="1" stroke="none"/>
<path d="M33 33.005C33 23.0639 41.2827 15.005 51.5 15.005C61.7173 15.005 70 23.0639 70 33.005C70 42.9461 61.7173 51.005 51.5 51.005C41.2827 51.005 33 42.9461 33 33.005Z" fill="#ffffff" fill-rule="evenodd" opacity="1" stroke="none"/>
<path d="M86.922 102.999C90.6142 98.5395 92.2611 92.7329 91.46 86.999C90.1773 77.8968 85.9036 69.4797 79.312 63.073C70.0792 68.294 63.8017 77.5141 62.328 88.018C61.7897 91.8179 62.9245 95.6646 65.439 98.564C67.873 101.375 71.4064 102.993 75.125 102.999L86.922 102.999Z" fill="#000000" fill-opacity="0.25" fill-rule="evenodd" opacity="1" stroke="none"/>
<path d="M84.164 88.022C81.926 71.4431 67.875 59.0092 51.147 58.805C34.4194 59.0097 20.3689 71.4435 18.131 88.022C17.5927 91.8219 18.7275 95.6686 21.242 98.568C23.6756 101.38 27.2091 102.999 30.928 103.005L71.368 103.005C75.0866 102.999 78.62 101.381 81.054 98.57C83.5685 95.6706 84.7033 91.8239 84.165 88.024L84.164 88.022Z" fill="#ffffff" fill-rule="evenodd" opacity="1" stroke="none"/>
<path d="M77 33.005C77 23.0639 85.2827 15.005 95.5 15.005C105.717 15.005 114 23.0639 114 33.005C114 42.9461 105.717 51.005 95.5 51.005C85.2827 51.005 77 42.9461 77 33.005Z" fill="#ffffff" fill-rule="evenodd" opacity="1" stroke="none"/>
</g>
</svg>
