<?xml version="1.0" encoding="UTF-8" standalone="no"?><!DOCTYPE svg PUBLIC "-//W3C//DTD SVG 1.1//EN"
    "http://www.w3.org/Graphics/SVG/1.1/DTD/svg11.dtd"><!-- Created with Vectornator (http://vectornator.io/) -->
<svg height="100%" stroke-miterlimit="10"
    style="fill-rule:nonzero;clip-rule:evenodd;stroke-linecap:round;stroke-linejoin:round;"
    version="1.1" viewBox="0 0 69.149 69.096" width="100%" xml:space="preserve"
    xmlns="http://www.w3.org/2000/svg" xmlns:xlink="http://www.w3.org/1999/xlink">
<defs />
    <g id="edit">
<path
    d="M40.587 14.546L12.444 42.691C12.3021 42.833 12.2009 43.0105 12.151 43.205L9.032 55.726C8.94955 56.0567 9.02393 56.407 9.23366 56.6757C9.44339 56.9444 9.76513 57.1017 10.106 57.102C10.1962 57.1034 10.2862 57.0936 10.374 57.073L22.895 53.953C23.0896 53.9041 23.2673 53.8031 23.409 53.661L51.555 25.513L40.587 14.546Z"
    fill="#ffffff" fill-rule="evenodd" opacity="1" stroke="none" />
        <path
            d="M58.523 10.702L55.39 7.569C53.1978 5.47655 49.7482 5.47655 47.556 7.569L43.719 11.406L54.69 22.374L58.527 18.537C60.6895 16.3734 60.6895 12.8666 58.527 10.703L58.523 10.702Z"
            fill="#ffffff" fill-rule="evenodd" opacity="1" stroke="none" />
</g>
</svg>
