<svg xmlns="http://www.w3.org/2000/svg" width="35.788" height="32.806" viewBox="0 0 35.788 32.806">
    <path id="envelope"
        d="M28.332,1H7.456A7.465,7.465,0,0,0,0,8.456V26.35a7.465,7.465,0,0,0,7.456,7.456H28.332a7.465,7.465,0,0,0,7.456-7.456V8.456A7.465,7.465,0,0,0,28.332,1ZM7.456,3.982H28.332A4.474,4.474,0,0,1,32.478,6.8L21.058,18.217a4.484,4.484,0,0,1-6.329,0L3.31,6.8A4.474,4.474,0,0,1,7.456,3.982ZM28.332,30.824H7.456A4.474,4.474,0,0,1,2.982,26.35V10.693l9.639,9.633a7.466,7.466,0,0,0,10.546,0l9.639-9.633V26.35A4.474,4.474,0,0,1,28.332,30.824Z"
        transform="translate(0 -1)" fill="#1257a2" />
</svg>
