<?xml version="1.0" encoding="UTF-8" standalone="no"?>
<!DOCTYPE svg PUBLIC "-//W3C//DTD SVG 1.1//EN" "http://www.w3.org/Graphics/SVG/1.1/DTD/svg11.dtd">
<!-- Created with Vectornator (http://vectornator.io/) -->
<svg height="100%" stroke-miterlimit="10" style="fill-rule:nonzero;clip-rule:evenodd;stroke-linecap:round;stroke-linejoin:round;" version="1.1" viewBox="0 0 122.899 115.118" width="100%" xml:space="preserve" xmlns="http://www.w3.org/2000/svg"   xmlns:xlink="http://www.w3.org/1999/xlink">
<defs/>
<clipPath id="ArtboardFrame">
<rect height="115.118" width="122.899" x="0" y="0"/>
</clipPath>
<g clip-path="url(#ArtboardFrame)" id="feather"  >
<path d="M42.847 98.009C43.0274 98.0087 43.1809 97.8774 43.209 97.6992C43.2371 97.521 43.1316 97.3488 42.96 97.293C39.8729 96.5057 37.1288 94.7283 35.148 92.233C31.494 88.084 26.697 88.58 23.836 89.41C22.5273 92.232 21.3133 95.0987 20.194 98.01L42.847 98.009Z" fill="#e7ecf6" fill-rule="evenodd" opacity="1" stroke="none"/>
<path d="M42.959 97.293C39.8719 96.5057 37.1278 94.7283 35.147 92.233C31.515 88.109 26.757 88.574 23.889 89.395C26.218 90.097 28.2966 91.4527 29.878 93.301C31.4329 95.1586 33.2822 96.7483 35.352 98.007L42.847 98.007C43.0274 98.0067 43.1809 97.8754 43.209 97.6972C43.2371 97.519 43.1316 97.3468 42.96 97.291L42.959 97.293Z" fill="#d5dff4" fill-rule="evenodd" opacity="1" stroke="none"/>
<path d="M104.443 15C99.585 15.355 80.508 17.2 63.727 25.085C63.2978 25.288 62.9417 25.6183 62.707 26.031L55.021 39.487C54.9309 39.6462 54.7482 39.729 54.5691 39.6918C54.3899 39.6546 54.2553 39.5059 54.236 39.324C53.9768 36.6426 53.9899 33.9418 54.275 31.263C54.2931 31.1011 54.2156 30.9433 54.0764 30.8586C53.9372 30.7739 53.7615 30.7776 53.626 30.868C42.365 38.428 29.765 47.638 22.621 60.273C22.44 60.5966 22.3476 60.9622 22.353 61.333C22.397 65.724 22.88 71.407 24.807 75.006C24.8542 75.0955 24.8308 75.2059 24.7514 75.2687C24.672 75.3314 24.5592 75.3286 24.483 75.262L19.158 70.674C19.0434 70.5757 18.8852 70.5459 18.7427 70.5958C18.6003 70.6457 18.4952 70.7677 18.467 70.916C17.0288 77.746 18.6745 84.8627 22.965 90.368L26.465 88.845L29.765 89.033L42.253 86.581C50.7922 84.9042 58.688 80.8604 65.039 74.911C65.1657 74.792 65.2069 74.6077 65.1429 74.446C65.079 74.2844 64.9228 74.1781 64.749 74.178C59.5932 74.2223 54.4579 73.5224 49.502 72.1C49.3213 72.0443 49.1999 71.8748 49.2052 71.6858C49.2106 71.4967 49.3414 71.3344 49.525 71.289L72.096 65.673C72.5272 65.5673 72.8988 65.2947 73.129 64.915C74.8688 62.0168 76.2869 58.9372 77.358 55.731L79.858 48.252C82.7824 39.4987 87.8361 31.6093 94.565 25.293L104.765 15.729C104.897 15.6069 104.938 15.4141 104.865 15.2493C104.792 15.0845 104.622 14.9843 104.443 15Z" fill="#f6f1f1" fill-rule="evenodd" opacity="1" stroke="none"/>
<path d="M104.446 15C102.459 15.145 98.092 15.54 92.477 16.494L83.858 24.582C77.0327 30.987 71.9061 38.9878 68.939 47.865L66.404 55.449C65.3176 58.7005 63.8795 61.8237 62.115 64.763C61.8813 65.148 61.5044 65.4246 61.067 65.532L38.177 71.227C37.9903 71.2726 37.8571 71.4373 37.8515 71.6294C37.8459 71.8214 37.9693 71.9936 38.153 72.05C43.1803 73.4939 48.3897 74.2046 53.62 74.16C53.7966 74.1599 53.9552 74.2678 54.0201 74.432C54.085 74.5962 54.0429 74.7834 53.914 74.904C47.4733 80.9375 39.4659 85.0385 30.806 86.739L21.646 88.539C22.0414 89.1818 22.4847 89.7938 22.972 90.37L42.259 86.583C50.7987 84.9062 58.6949 80.8619 65.046 74.912C65.1729 74.7934 65.2144 74.6092 65.1506 74.4477C65.0868 74.2861 64.9307 74.1799 64.757 74.18C59.5991 74.2243 54.4617 73.5238 49.504 72.1C49.3233 72.0443 49.2019 71.8748 49.2072 71.6858C49.2126 71.4967 49.3434 71.3344 49.527 71.289L72.098 65.673C72.5292 65.5673 72.9008 65.2947 73.131 64.915C74.8708 62.0168 76.2889 58.9372 77.36 55.731L79.86 48.252C82.7859 39.4987 87.841 31.6097 94.571 25.294L104.766 15.729C104.898 15.6071 104.938 15.4149 104.866 15.2504C104.794 15.0858 104.625 14.9853 104.446 15Z" fill="#e7ecf6" fill-rule="evenodd" opacity="1" stroke="none"/>
<path d="M94.572 25.292L104.764 15.728C104.851 15.6471 104.899 15.5333 104.898 15.4147C104.896 15.2961 104.845 15.1837 104.756 15.105L90.117 22.384C72.7721 31.0078 57.2813 42.9408 44.517 57.511C35.9298 67.3466 28.8276 78.3854 23.436 90.277L26.47 88.844L29.77 89.032L42.259 86.58C50.7987 84.9032 58.6949 80.8589 65.046 74.909C65.1729 74.7904 65.2144 74.6062 65.1506 74.4447C65.0868 74.2831 64.9307 74.1769 64.757 74.177C59.5991 74.2216 54.4618 73.5214 49.504 72.098C49.3233 72.0423 49.2019 71.8728 49.2072 71.6838C49.2126 71.4947 49.3434 71.3324 49.527 71.287L72.104 65.671C72.5352 65.5653 72.9068 65.2927 73.137 64.913C74.8768 62.0148 76.2949 58.9352 77.366 55.729L79.866 48.25C82.7916 39.4966 87.8468 31.6075 94.577 25.292L94.572 25.292Z" fill="#e7ecf6" fill-rule="evenodd" opacity="1" stroke="none"/>
<path d="M104.747 15.109L90.108 22.388C87.104 23.882 84.161 25.4727 81.279 27.16C75.7195 33.0938 71.5069 40.1582 68.929 47.87L66.395 55.454C65.3085 58.7063 63.87 61.8301 62.105 64.77C61.8713 65.155 61.4944 65.4316 61.057 65.539L38.167 71.234C37.9803 71.2796 37.8471 71.4443 37.8415 71.6364C37.8359 71.8284 37.9593 72.0006 38.143 72.057C43.1703 73.5006 48.3797 74.2109 53.61 74.166C53.7866 74.1659 53.9452 74.2738 54.0101 74.438C54.075 74.6022 54.0329 74.7894 53.904 74.91C47.4626 80.9425 39.4549 85.0425 30.795 86.742L24.5 87.978C24.1347 88.7427 23.7763 89.5093 23.425 90.278L42.249 86.578C50.7887 84.9012 58.6849 80.8569 65.036 74.907C65.1629 74.7884 65.2044 74.6042 65.1406 74.4427C65.0768 74.2811 64.9207 74.1749 64.747 74.175C59.5898 74.2218 54.4528 73.524 49.495 72.103C49.3143 72.0473 49.1929 71.8778 49.1982 71.6888C49.2036 71.4997 49.3344 71.3374 49.518 71.292L72.089 65.676C72.5202 65.5703 72.8918 65.2977 73.122 64.918C74.8618 62.0198 76.2799 58.9402 77.351 55.734L79.851 48.255C82.7769 39.5017 87.832 31.6127 94.562 25.297L104.754 15.733C104.841 15.6521 104.89 15.5382 104.888 15.4195C104.887 15.3007 104.836 15.188 104.747 15.109Z" fill="#d5dff4" fill-rule="evenodd" opacity="1" stroke="none"/>
<path d="M103.676 115.117L85.268 115.117C82.4849 115.111 79.7774 114.211 77.545 112.549C74.8739 110.563 71.4291 109.937 68.23 110.856L59.547 113.375C55.4512 114.563 51.042 113.929 47.447 111.635L42.094 108.218C37.6544 105.372 31.9976 105.243 27.433 107.884L15.554 114.726C14.8543 115.129 13.9602 114.889 13.557 114.189C13.1538 113.489 13.3943 112.595 14.094 112.192L25.973 105.35C31.4813 102.162 38.3084 102.317 43.667 105.75L49.02 109.167C51.9037 111.009 55.4413 111.519 58.728 110.567L67.411 108.048C71.4918 106.875 75.8861 107.674 79.293 110.208C81.0189 111.493 83.1122 112.189 85.264 112.194L103.672 112.194C104.48 112.194 105.134 112.849 105.134 113.657C105.134 114.464 104.48 115.119 103.672 115.119L103.676 115.117Z" fill="#c19aeb" fill-rule="evenodd" opacity="1" stroke="none"/>
<path d="M76.435 30.106C75.9943 29.4296 75.0889 29.2381 74.412 29.678C63.9513 36.4904 54.3811 44.5808 45.923 53.762C45.441 54.286 44.96 54.818 44.481 55.352L44.481 50.971C44.481 50.1633 43.8262 49.5085 43.0185 49.5085C42.2108 49.5085 41.556 50.1633 41.556 50.971L41.556 58.724C31.4036 70.8716 23.4462 84.6958 18.041 99.576L13.066 113.151C12.7879 113.909 13.1772 114.749 13.9355 115.027C14.6938 115.306 15.5339 114.916 15.812 114.158L20.787 100.587C23.4032 93.4271 26.6144 86.4989 30.387 79.875L37.407 79.875C38.2147 79.875 38.8695 79.2202 38.8695 78.4125C38.8695 77.6048 38.2147 76.95 37.407 76.95L32.107 76.95C36.0616 70.4096 40.5826 64.2289 45.618 58.479C46.418 57.562 47.247 56.643 48.072 55.748C51.3647 52.1733 54.8287 48.7703 58.464 45.539L65.999 45.539C66.8067 45.539 67.4615 44.8842 67.4615 44.0765C67.4615 43.2688 66.8067 42.614 65.999 42.614L61.853 42.614C66.3583 38.8393 71.0858 35.338 76.01 32.129C76.6869 31.6886 76.8785 30.7828 76.438 30.106L76.435 30.106Z" fill="#d5dff4" fill-rule="evenodd" opacity="1" stroke="none"/>
</g>
</svg>
