<?xml version="1.0" encoding="UTF-8" standalone="no"?>
<!DOCTYPE svg PUBLIC "-//W3C//DTD SVG 1.1//EN" "http://www.w3.org/Graphics/SVG/1.1/DTD/svg11.dtd">
<!-- Created with Vectornator (http://vectornator.io/) -->
<svg height="100%" stroke-miterlimit="10" style="fill-rule:nonzero;clip-rule:evenodd;stroke-linecap:round;stroke-linejoin:round;" version="1.1" viewBox="0 0 135.384 141.196" width="100%" xml:space="preserve" xmlns="http://www.w3.org/2000/svg"  xmlns:xlink="http://www.w3.org/1999/xlink">
<defs/>
<clipPath id="ArtboardFrame">
<rect height="141.196" width="135.384" x="0" y="0"/>
</clipPath>
<g clip-path="url(#ArtboardFrame)" id="Untitled"  >
<path d="M35.132 131.1C32.4895 131.099 30.1721 129.336 29.4659 126.789C28.7596 124.243 29.8377 121.538 32.102 120.176C52.944 107.658 52.944 80.776 52.944 64.714C52.944 54.9662 60.8462 47.064 70.594 47.064C80.3418 47.064 88.244 54.9662 88.244 64.714C88.202 67.9329 85.5807 70.5203 82.3615 70.5203C79.1423 70.5203 76.521 67.9329 76.479 64.714C76.437 61.4951 73.8157 58.9077 70.5965 58.9077C67.3773 58.9077 64.756 61.4951 64.714 64.714C64.714 82.05 64.714 114.329 38.159 130.265C37.2452 130.812 36.2 131.101 35.135 131.1L35.132 131.1ZM64.332 139.459C77.756 125.929 85.598 106.904 87.632 82.859C87.7706 81.3013 87.2833 79.7526 86.2777 78.5549C85.2722 77.3572 83.8312 76.6091 82.273 76.476C80.7134 76.3162 79.1557 76.7965 77.9569 77.8068C76.758 78.8171 76.0208 80.2709 75.914 81.835C74.084 103.348 67.566 119.484 55.983 131.135C53.6924 133.44 53.7043 137.166 56.0095 139.457C58.3147 141.747 62.0404 141.735 64.331 139.43L64.332 139.459ZM94.922 138.365C98.4903 132.436 101.462 126.168 103.793 119.652C104.793 116.625 103.2 113.353 100.202 112.273C97.2029 111.192 93.8891 112.696 92.728 115.664C90.657 121.443 88.0206 127.003 84.857 132.264C83.1722 135.043 84.0589 138.662 86.8376 140.348C89.6163 142.033 93.2353 141.148 94.922 138.37L94.922 138.365ZM108.83 101.13C111.009 89.1167 111.994 76.9173 111.771 64.71C111.759 47.6492 101.228 32.3626 85.291 26.2726C69.3542 20.1827 51.3124 24.5508 39.926 37.256C38.4306 38.8061 37.9019 41.0495 38.5476 43.1043C39.1933 45.159 40.9103 46.6967 43.0236 47.1127C45.1369 47.5287 47.3086 46.7567 48.685 45.1C56.8179 36.0229 69.7061 32.9016 81.0909 37.2517C92.4756 41.6019 99.9985 52.5224 100.006 64.71C100.223 76.1626 99.3125 87.6087 97.288 98.883C96.6693 102.07 98.7489 105.155 101.935 105.778C102.309 105.853 102.689 105.89 103.07 105.89C105.881 105.883 108.294 103.889 108.83 101.13ZM41.179 64.71C41.1773 63.0682 41.3132 61.4291 41.585 59.81C42.0582 57.6881 41.3226 55.4783 39.6722 54.0633C38.0217 52.6483 35.7255 52.2588 33.7008 53.0505C31.6761 53.8421 30.253 55.6858 30 57.845C29.6118 60.1128 29.4151 62.4092 29.412 64.71C29.412 92.035 21.494 105.889 5.881 105.889C2.6621 105.931 0.0746978 108.552 0.0746973 111.772C0.0746966 114.991 2.66209 117.612 5.881 117.654C28.643 117.655 41.179 98.83 41.179 64.71ZM121.772 137.738C131.452 114.643 136.065 89.74 135.3 64.71C135.327 54.9389 133.113 45.2918 128.829 36.51C127.393 33.6133 123.889 32.417 120.981 33.8304C118.073 35.2439 116.849 38.7381 118.24 41.657C121.74 48.8372 123.551 56.7231 123.534 64.711C124.275 88.058 120.025 111.294 111.069 132.868C110.425 134.291 110.373 135.911 110.925 137.372C111.476 138.833 112.586 140.015 114.01 140.657C114.772 141.007 115.601 141.188 116.44 141.186C118.737 141.176 120.819 139.83 121.77 137.739L121.772 137.738ZM17.648 82.358L17.648 64.71C17.6789 35.4822 41.3652 11.7963 70.593 11.766C82.0549 11.7278 93.2134 15.4473 102.36 22.355C104.96 24.2528 108.603 23.7081 110.535 21.1328C112.466 18.5574 111.969 14.9079 109.419 12.943C98.2382 4.50343 84.6014-0.0425549 70.593-2.74915e-06C34.872 0.0418817 5.92488 28.989 5.883 64.71L5.883 82.358C5.92497 85.5769 8.54632 88.1643 11.7655 88.1643C14.9847 88.1643 17.606 85.5769 17.648 82.358Z" fill="#1257a2" fill-rule="evenodd" opacity="1" stroke="none"/>
</g>
</svg>
