<svg id="google-icon" xmlns="http://www.w3.org/2000/svg" width="57.891" height="59.073" viewBox="0 0 57.891 59.073">
  <path id="Path_181" d="M158.9,112.8a25.311,25.311,0,0,0-.624-6.039H130.55v10.961h16.278a14.434,14.434,0,0,1-6.039,9.583l-.055.367,8.768,6.793.607.061c5.579-5.153,8.8-12.734,8.8-21.726" transform="translate(-101.014 -82.607)" fill="#4285f4"/>
  <path id="Path_182" d="M40.311,180.065c7.975,0,14.67-2.626,19.56-7.154l-9.32-7.22a17.481,17.481,0,0,1-10.239,2.954,17.781,17.781,0,0,1-16.8-12.274l-.346.029-9.117,7.056-.119.331a29.515,29.515,0,0,0,26.386,16.278" transform="translate(-10.775 -120.992)" fill="#34a853"/>
  <path id="Path_183" d="M12.733,90.556a18.184,18.184,0,0,1-.984-5.842,19.108,19.108,0,0,1,.952-5.842l-.017-.391L3.453,71.312l-.3.144a29.474,29.474,0,0,0,0,26.517l9.583-7.417" transform="translate(0 -55.178)" fill="#fbbc05"/>
  <path id="Path_184" d="M40.311,11.421a16.37,16.37,0,0,1,11.421,4.4l8.336-8.139A28.378,28.378,0,0,0,40.311,0,29.515,29.515,0,0,0,13.925,16.278l9.55,7.417A17.854,17.854,0,0,1,40.311,11.421" transform="translate(-10.775)" fill="#eb4335"/>
</svg>
