<svg xmlns="http://www.w3.org/2000/svg" width="94.711" height="84.111" viewBox="0 0 94.711 84.111">
    <path id="home_close"
        d="M93.53,69.414,50.939,31.956a5.544,5.544,0,0,0-7.158,0L1.2,69.414c-1.985,1.747-1.455,3.162,1.191,3.162H15.532v38.357a3.843,3.843,0,0,0,3.824,3.824H35.431V89.524A3.843,3.843,0,0,1,39.255,85.7H55.49a3.809,3.809,0,0,1,3.824,3.824v25.233H75.39a3.826,3.826,0,0,0,3.824-3.824V72.563H92.352c2.607,0,3.136-1.4,1.178-3.149Z"
        transform="translate(-0.001 -30.646)" fill="#0194fe" />
</svg>
