<?xml version="1.0" encoding="UTF-8" standalone="no"?>
<!DOCTYPE svg PUBLIC "-//W3C//DTD SVG 1.1//EN" "http://www.w3.org/Graphics/SVG/1.1/DTD/svg11.dtd">
 <svg height="100%" stroke-miterlimit="10" style="fill-rule:nonzero;clip-rule:evenodd;stroke-linecap:round;stroke-linejoin:round;" version="1.1" viewBox="0 0 345.491 228.94" width="100%" xml:space="preserve" xmlns="http://www.w3.org/2000/svg" xmlns:xlink="http://www.w3.org/1999/xlink">
<defs>
<linearGradient gradientTransform="matrix(0.939693 0.34202 -0.34202 0.939693 219.281 16.6663)" gradientUnits="userSpaceOnUse" id="LinearGradient" x1="292.372" x2="292.372" y1="35.4258" y2="222.657">
<stop offset="0" stop-color="#c6dff5"/>
<stop offset="1" stop-color="#5ba7fb"/>
</linearGradient>
<linearGradient gradientTransform="matrix(-0.939693 0.34202 -0.34202 -0.939693 180.958 171.956)" gradientUnits="userSpaceOnUse" id="LinearGradient_2" x1="124.372" x2="124.372" y1="226.657" y2="39.4253">
<stop offset="0" stop-color="#d9ebfc"/>
<stop offset="1" stop-color="#5ba7fb"/>
</linearGradient>
<linearGradient gradientTransform="matrix(1 0 0 1 85.5586 1.86932)" gradientUnits="userSpaceOnUse" id="LinearGradient_3" x1="210.844" x2="210.844" y1="15" y2="224">
<stop offset="0" stop-color="#baf5f5"/>
<stop offset="1" stop-color="#00cec9"/>
</linearGradient>
</defs>
<g id="home_active">
<g opacity="1">
<path d="M234.082 35.5097L326.172 69.0277C336.552 72.8055 341.904 84.2824 338.126 94.6619L296.741 208.365C292.964 218.744 281.487 224.096 271.107 220.318L179.017 186.8C168.638 183.022 163.286 171.546 167.064 161.166L208.448 47.4632C212.226 37.0836 223.703 31.7319 234.082 35.5097Z" fill="#1257a2" fill-rule="nonzero" opacity="1" stroke="none"/>
<g opacity="1">
<path d="M238.074 23.5067L330.164 57.0247C340.544 60.8025 345.896 72.2794 342.118 82.6589L300.733 196.362C296.956 206.741 285.479 212.093 275.099 208.315L183.009 174.797C172.63 171.019 167.278 159.543 171.056 149.163L212.44 35.4602C216.218 25.0806 227.695 19.7289 238.074 23.5067Z" fill="url(#LinearGradient)" fill-rule="nonzero" opacity="1" stroke="none"/>
<path d="M237.732 24.4464L329.822 57.9644C339.683 61.5533 344.767 72.4563 341.178 82.3169L299.794 196.02C296.205 205.88 285.302 210.964 275.441 207.376L183.351 173.858C173.491 170.269 168.407 159.366 171.995 149.505L213.38 35.8022C216.969 25.9416 227.872 20.8574 237.732 24.4464Z" fill="none" opacity="1" stroke="#a3cff6" stroke-linecap="butt" stroke-linejoin="miter" stroke-width="2"/>
</g>
</g>
<g opacity="1">
<g opacity="1">
<path d="M166.161 190.797L74.0709 224.315C63.6914 228.093 52.2145 222.741 48.4367 212.361L7.05221 98.6584C3.27436 88.2789 8.6261 76.802 19.0057 73.0242L111.096 39.5062C121.475 35.7284 132.952 41.0801 136.73 51.4597L178.114 165.162C181.892 175.542 176.54 187.019 166.161 190.797Z" fill="#1257a2" fill-rule="nonzero" opacity="1" stroke="none"/>
<g opacity="1">
<path d="M162.164 178.797L70.0739 212.315C59.6944 216.093 48.2175 210.741 44.4397 200.361L3.05521 86.6584C-0.722646 76.2789 4.6291 64.802 15.0087 61.0242L107.099 27.5062C117.478 23.7284 128.955 29.0801 132.733 39.4596L174.117 153.162C177.895 163.542 172.543 175.019 162.164 178.797Z" fill="url(#LinearGradient_2)" fill-rule="nonzero" opacity="1" stroke="none"/>
<path d="M161.822 177.857L69.7319 211.375C59.8713 214.964 48.9683 209.88 45.3793 200.019L3.9949 86.3164C0.405939 76.4558 5.49009 65.5528 15.3507 61.9639L107.441 28.4459C117.301 24.8569 128.204 29.9411 131.793 39.8017L173.178 153.504C176.766 163.365 171.682 174.268 161.822 177.857Z" fill="none" opacity="1" stroke="#a3cff6" stroke-linecap="butt" stroke-linejoin="miter" stroke-width="2"/>
</g>
</g>
<path d="M113.559 17.8693L236.559 17.8693C252.023 17.8693 264.559 30.4053 264.559 45.8693L264.559 198.869C264.559 214.333 252.023 226.869 236.559 226.869L113.559 226.869C98.0947 226.869 85.5586 214.333 85.5586 198.869L85.5586 45.8693C85.5586 30.4053 98.0947 17.8693 113.559 17.8693Z" fill="#1398bb" fill-rule="nonzero" opacity="1" stroke="none"/>
<g opacity="1">
<path d="M113.559 1.86932L236.559 1.86932C252.023 1.86932 264.559 14.4053 264.559 29.8693L264.559 182.869C264.559 198.333 252.023 210.869 236.559 210.869L113.559 210.869C98.0947 210.869 85.5586 198.333 85.5586 182.869L85.5586 29.8693C85.5586 14.4053 98.0947 1.86932 113.559 1.86932Z" fill="url(#LinearGradient_3)" fill-rule="nonzero" opacity="1" stroke="none"/>
<path d="M113.559 2.86932L236.559 2.86932C251.47 2.86932 263.559 14.9576 263.559 29.8693L263.559 182.869C263.559 197.781 251.47 209.869 236.559 209.869L113.559 209.869C98.6469 209.869 86.5586 197.781 86.5586 182.869L86.5586 29.8693C86.5586 14.9576 98.6469 2.86932 113.559 2.86932Z" fill="none" opacity="1" stroke="#6cdbf8" stroke-linecap="butt" stroke-linejoin="miter" stroke-width="2"/>
</g>
</g>
<path d="M222.143 100.417L176.343 60.1343C174.12 58.2551 170.865 58.2551 168.643 60.1343L122.852 100.417C120.718 102.295 121.287 103.817 124.133 103.817L138.259 103.817L138.259 145.067C138.27 147.334 140.104 149.168 142.371 149.179L159.659 149.179L159.659 122.044C159.67 119.778 161.504 117.944 163.771 117.932L181.234 117.932C182.325 117.929 183.373 118.361 184.145 119.133C184.917 119.905 185.349 120.953 185.346 122.044L185.346 149.179L202.634 149.179C204.904 149.178 206.745 147.338 206.746 145.067L206.746 103.803L220.876 103.803C223.676 103.803 224.249 102.295 222.143 100.416L222.143 100.417Z" fill="#ffffff" fill-rule="nonzero" opacity="1" stroke="none"/>
</g>
</svg>
