<?xml version="1.0" encoding="UTF-8" standalone="no"?>
<!DOCTYPE svg PUBLIC "-//W3C//DTD SVG 1.1//EN" "http://www.w3.org/Graphics/SVG/1.1/DTD/svg11.dtd">
 <svg height="100%" stroke-miterlimit="10" style="fill-rule:nonzero;clip-rule:evenodd;stroke-linecap:round;stroke-linejoin:round;" version="1.1" viewBox="0 0 140.759 153.578" width="100%" xml:space="preserve" xmlns="http://www.w3.org/2000/svg" xmlns:xlink="http://www.w3.org/1999/xlink">
<defs>
<linearGradient gradientTransform="matrix(1 0 0 1 -31.542 -30.6581)" gradientUnits="userSpaceOnUse" id="LinearGradient" x1="70.3715" x2="70.3715" y1="0.00203552" y2="141.013">
<stop offset="0" stop-color="#82e4fe"/>
<stop offset="1" stop-color="#207881"/>
</linearGradient>
</defs>
<clipPath id="ArtboardFrame">
<rect height="153.578" width="140.759" x="0" y="0"/>
</clipPath>
<g clip-path="url(#ArtboardFrame)" id="info_active">
<path d="M68.5 12.7979C59.239 14.0139 50.527 14.7449 41.847 18.7189C14.6527 31.0821-1.97364 59.0644 0.171004 88.86C0.696958 96.2003 2.42777 103.404 5.294 110.182C6.694 113.474 16.774 129.424 24.827 136.266C30.2071 140.856 36.1344 144.763 42.474 147.898C45.2229 149.093 48.0518 150.096 50.94 150.898C60.014 153.421 69.4902 154.166 78.847 153.092C111.482 149.174 138.327 121.912 140.59 88.8599C142.843 55.9599 122.167 24.7739 90.135 15.5779C83.549 13.6859 75.364 11.8979 68.5 12.7979Z" fill="#61c0d4" fill-rule="nonzero" opacity="1" stroke="none"/>
<path d="M68.5 0.241919C59.239 1.45792 50.527 2.18892 41.847 6.16292C14.6527 18.526-1.97364 46.5084 0.171004 76.3039C0.696958 83.6442 2.42777 90.8479 5.294 97.6259C6.694 100.918 16.774 116.868 24.827 123.71C30.2071 128.3 36.1344 132.207 42.474 135.342C45.2229 136.537 48.0518 137.54 50.94 138.342C60.014 140.865 69.4902 141.61 78.847 140.536C111.482 136.618 138.327 109.356 140.59 76.3039C142.843 43.4039 122.167 12.2179 90.135 3.02192C83.549 1.12992 75.364-0.658081 68.5 0.241919Z" fill="url(#LinearGradient)" fill-rule="nonzero" opacity="1" stroke="none"/>
<path d="M61.309 73.7779L61.309 90.9439C58.939 90.9439 56.768 91.3509 55.02 93.1049C53.5919 94.6551 52.8867 96.7372 53.0788 98.8362C53.2708 100.935 54.3423 102.855 56.028 104.12C58.349 105.681 61.019 105.468 63.685 105.468L77.153 105.468C79.682 105.468 82.263 105.358 84.237 103.533C89.814 98.3749 84.656 90.9479 78.209 90.9439L78.209 73.7779C84.779 73.2009 86.128 64.3049 81.109 60.7849C79.068 59.3519 76.609 59.5169 74.243 59.5169C70.226 59.5169 66.102 59.2469 62.095 59.5409C53.915 60.1419 52.751 73.0259 61.309 73.7779Z" fill="#ffffff" fill-rule="nonzero" opacity="1" stroke="none"/>
<path d="M108.843 25.1939L109.107 25.4579L108.843 25.1939M67.643 30.5939C53.385 33.1649 57.489 55.2939 71.604 52.7549C86.16 50.1409 82.106 27.9939 67.647 30.5939L67.643 30.5939Z" fill="#ffffff" fill-rule="nonzero" opacity="1" stroke="none"/>
</g>
</svg>
