<svg xmlns="http://www.w3.org/2000/svg" width="46.162" height="55.122" viewBox="0 0 46.162 55.122">
  <g id="location" transform="translate(0 0)">
    <path id="Path_318" d="M63.806,55.319l-1.6-1.372C60,52.1,40.725,35.454,40.725,23.279a23.081,23.081,0,0,1,46.162,0c0,12.175-19.273,28.82-21.471,30.677Zm0-50.131a18.111,18.111,0,0,0-18.09,18.09c0,7.649,11.857,19.867,18.09,25.46,6.233-5.595,18.09-17.82,18.09-25.46A18.111,18.111,0,0,0,63.806,5.189Z" transform="translate(-40.725 -0.198)" fill="#0abde3"/>
    <path id="Path_319" d="M179.275,147.9a9.149,9.149,0,1,1,9.149-9.149A9.149,9.149,0,0,1,179.275,147.9Zm0-13.724a4.575,4.575,0,1,0,4.575,4.575A4.575,4.575,0,0,0,179.275,134.173Z" transform="translate(-156.194 -115.667)" fill="#0abde3"/>
  </g>
</svg>
