<svg id="lock" xmlns="http://www.w3.org/2000/svg" width="38.556" height="46.267"
    viewBox="0 0 38.556 46.267">
    <path id="Path_185"
        d="M34.773,16.24V13.495a13.495,13.495,0,1,0-26.989,0V16.24A9.639,9.639,0,0,0,2,25.061V36.628a9.651,9.651,0,0,0,9.639,9.639H30.917a9.651,9.651,0,0,0,9.639-9.639V25.061A9.639,9.639,0,0,0,34.773,16.24ZM11.639,13.495a9.639,9.639,0,1,1,19.278,0v1.928H11.639ZM36.7,36.628a5.783,5.783,0,0,1-5.783,5.783H11.639a5.783,5.783,0,0,1-5.783-5.783V25.061a5.783,5.783,0,0,1,5.783-5.783H30.917A5.783,5.783,0,0,1,36.7,25.061Z"
        transform="translate(-2)" fill="#1257a2" />
    <path id="Path_186"
        d="M12.928,14A1.928,1.928,0,0,0,11,15.928v3.856a1.928,1.928,0,1,0,3.856,0V15.928A1.928,1.928,0,0,0,12.928,14Z"
        transform="translate(6.35 12.989)" fill="#1257a2" />
</svg>
