<svg 
 xmlns="http://www.w3.org/2000/svg"
 xmlns:xlink="http://www.w3.org/1999/xlink"
 width="898px" height="489px">
<defs>
<filter id="Filter_0">
    <feFlood flood-color="rgb(255, 255, 255)" flood-opacity="1" result="floodOut" />
    <feComposite operator="atop" in="floodOut" in2="SourceGraphic" result="compOut" />
    <feBlend mode="normal" in="compOut" in2="SourceGraphic" />
</filter>

</defs>
<g filter="url(#Filter_0)">
<path fill-rule="evenodd"  fill="rgb(255, 255, 255)"
 d="M420.000,175.000 C449.333,175.000 478.667,175.000 508.000,175.000 C483.667,132.667 459.333,90.333 435.000,48.000 C427.413,36.103 417.595,25.911 406.000,18.000 C389.767,6.924 370.742,0.796 351.000,-0.000 C293.000,-0.000 235.000,-0.000 177.000,-0.000 C161.109,1.230 145.741,5.996 132.000,14.000 C116.269,23.163 103.215,36.256 94.000,52.000 C67.333,98.667 40.667,145.333 14.000,192.000 C5.081,207.550 0.254,225.090 -0.000,243.000 C-0.269,261.927 4.578,280.567 14.000,297.000 C41.333,344.667 68.667,392.333 96.000,440.000 C106.344,456.276 120.803,469.425 138.000,478.000 C151.980,484.971 167.327,488.700 183.000,489.000 C238.667,489.000 294.333,489.000 350.000,489.000 C368.463,488.378 386.409,482.872 402.000,473.000 C416.564,463.778 428.578,451.060 437.000,436.000 C458.667,398.333 480.333,360.667 502.000,323.000 C472.667,323.000 443.333,323.000 414.000,323.000 C399.333,348.667 384.667,374.333 370.000,400.000 C368.029,402.676 365.674,405.032 363.000,407.000 C359.976,409.225 356.599,410.912 353.000,412.000 C296.000,412.000 239.000,412.000 182.000,412.000 C178.146,411.874 174.380,410.849 171.000,409.000 C167.854,407.279 165.127,404.891 163.000,402.000 C134.667,353.333 106.333,304.667 78.000,256.000 C76.677,252.482 76.000,248.759 76.000,245.000 C76.000,241.241 76.677,237.518 78.000,234.000 C106.333,184.667 134.667,135.333 163.000,86.000 C164.164,83.629 165.878,81.572 168.000,80.000 C170.068,78.469 172.464,77.442 175.000,77.000 C234.000,77.000 293.000,77.000 352.000,77.000 C355.467,76.587 358.970,77.270 362.000,79.000 C364.498,80.426 366.560,82.498 368.000,85.000 C385.333,115.000 402.667,145.000 420.000,175.000 Z"/>
</g>
<path fill-rule="evenodd"  fill="rgb(18, 255, 255)"
 d="M293.000,220.000 C395.333,220.000 497.667,220.000 600.000,220.000 C615.530,222.651 627.000,236.245 627.000,252.000 C627.000,267.755 615.530,281.349 600.000,284.000 C497.667,284.000 395.333,284.000 293.000,284.000 C277.908,280.844 267.000,267.419 267.000,252.000 C267.000,236.581 277.908,223.156 293.000,220.000 Z"/>
<path fill-rule="evenodd"  fill="rgb(255, 255, 255)"
 d="M893.916,388.725 C891.597,397.832 888.374,405.839 884.248,412.748 C880.122,419.658 874.983,425.029 868.831,428.861 C862.679,432.695 855.305,434.611 846.712,434.611 C836.066,434.611 827.753,431.388 821.773,424.943 C815.791,418.498 812.801,409.514 812.801,397.990 C812.801,389.104 814.009,380.107 816.426,371.000 C818.843,361.894 822.114,353.971 826.241,347.233 C830.366,340.495 835.469,335.271 841.548,331.559 C847.627,327.849 855.036,325.993 863.777,325.993 C870.662,325.993 876.631,327.384 881.685,330.168 C886.739,332.951 890.620,337.089 893.330,342.582 C896.040,348.075 897.395,354.337 897.395,361.369 C897.395,370.500 896.235,379.619 893.916,388.725 ZM862.166,348.771 C858.552,348.771 855.391,351.640 852.681,357.377 C849.971,363.115 847.615,370.573 845.613,379.753 C843.610,388.933 842.610,396.257 842.610,401.725 C842.610,408.317 844.563,411.613 848.470,411.613 C850.568,411.613 852.375,410.710 853.889,408.903 C857.209,404.997 860.310,397.429 863.191,386.198 C866.072,374.968 867.513,365.690 867.513,358.366 C867.513,351.970 865.730,348.771 862.166,348.771 ZM795.406,380.155 C791.279,383.843 784.846,388.102 776.106,392.936 C768.293,397.380 763.081,400.627 760.469,402.677 C757.856,404.728 756.379,406.413 756.038,407.731 L796.321,407.731 L791.048,432.780 L717.805,432.780 L719.563,424.357 C720.784,418.450 722.579,413.297 724.947,408.903 C727.314,404.508 730.451,400.407 734.358,396.598 C738.264,392.790 744.880,387.785 754.207,381.584 C761.872,376.409 766.805,372.844 769.002,370.890 C771.199,368.938 772.834,367.021 773.909,365.141 C774.982,363.262 775.520,361.198 775.520,358.952 C775.520,356.267 774.580,354.130 772.701,352.543 C770.820,350.957 768.196,350.163 764.827,350.163 C754.182,350.163 745.052,352.775 737.434,358.000 L742.854,332.438 C752.327,328.142 763.899,325.993 777.571,325.993 C783.821,325.993 789.204,327.165 793.721,329.508 C798.237,331.852 801.692,335.100 804.085,339.250 C806.477,343.400 807.674,348.137 807.674,353.459 C807.674,358.977 806.660,363.884 804.634,368.180 C802.607,372.478 799.531,376.469 795.406,380.155 ZM700.960,352.506 L684.041,432.780 L652.254,432.780 L669.173,352.506 L639.803,352.506 L645.003,327.751 L735.896,327.751 L730.696,352.506 L700.960,352.506 ZM597.908,352.506 L594.026,371.403 L625.227,371.403 L619.807,396.159 L588.606,396.159 L580.989,432.780 L549.348,432.780 L571.541,327.751 L637.386,327.751 L632.112,352.506 L597.908,352.506 ZM496.980,432.780 L519.173,327.751 L550.813,327.751 L528.621,432.780 L496.980,432.780 Z"/>
</svg>