<svg xmlns="http://www.w3.org/2000/svg" width="50.764" height="50.763" viewBox="0 0 50.764 50.763">
    <path id="phone-call"
        d="M27.5,2.12A2.119,2.119,0,0,1,29.617,0,21.21,21.21,0,0,1,50.8,21.188a2.119,2.119,0,0,1-4.237,0A16.968,16.968,0,0,0,29.617,4.239,2.119,2.119,0,0,1,27.5,2.12Zm2.119,10.593a8.475,8.475,0,0,1,8.475,8.474,2.119,2.119,0,0,0,4.237,0A12.724,12.724,0,0,0,29.617,8.476a2.119,2.119,0,1,0,0,4.237ZM48.882,35.465a6.568,6.568,0,0,1,0,9.275l-1.928,2.222C29.6,63.575-12.622,21.362,3.734,3.955L6.17,1.837a6.528,6.528,0,0,1,9.167.085c.066.066,3.991,5.165,3.991,5.165a6.568,6.568,0,0,1-.015,9.072l-2.453,3.085A27.078,27.078,0,0,0,31.545,33.957l3.1-2.468a6.568,6.568,0,0,1,9.07-.013S48.816,35.4,48.882,35.465Zm-2.915,3.08s-5.07-3.9-5.136-3.966a2.33,2.33,0,0,0-3.282,0c-.057.059-4.33,3.464-4.33,3.464a2.119,2.119,0,0,1-2.074.322A31.8,31.8,0,0,1,12.456,19.7a2.119,2.119,0,0,1,.307-2.119s3.4-4.275,3.462-4.33a2.33,2.33,0,0,0,0-3.282c-.066-.064-3.966-5.138-3.966-5.138a2.33,2.33,0,0,0-3.2.083L6.624,7.038C-5.33,21.41,31.261,55.972,43.856,44.069l1.93-2.225a2.375,2.375,0,0,0,.18-3.3Z"
        transform="translate(-0.039 0.002)" fill="#0abde3" />
</svg>
