<?xml version="1.0" encoding="UTF-8" standalone="no"?><!DOCTYPE svg PUBLIC "-//W3C//DTD SVG 1.1//EN"
    "http://www.w3.org/Graphics/SVG/1.1/DTD/svg11.dtd"><!-- Created with Vectornator (http://vectornator.io/) -->
<svg height="100%" stroke-miterlimit="10"
    style="fill-rule:nonzero;clip-rule:evenodd;stroke-linecap:round;stroke-linejoin:round;"
    version="1.1" viewBox="0 0 66.806 66.806" width="100%" xml:space="preserve"
    xmlns="http://www.w3.org/2000/svg" xmlns:xlink="http://www.w3.org/1999/xlink">
<defs />
    <g id="Untitled">
<path
    d="M34.9661 28.8364L34.9668 15.0387C34.965 14.1821 34.2692 13.4891 33.4126 13.4906C32.556 13.4922 31.8628 14.1877 31.864 15.0443L31.864 15.0443L31.8626 28.8442L18.0677 28.8407C17.2111 28.841 16.5168 29.5355 16.5168 30.3921C16.5168 31.2487 17.2111 31.9432 18.0677 31.9435L31.8626 31.9399L31.8641 45.7398C31.8811 46.5841 32.5703 47.2596 33.4147 47.2596C34.2592 47.2596 34.9484 46.5841 34.9654 45.7398L34.9661 31.9477L48.7639 31.9484C49.6081 31.9314 50.2837 31.2421 50.2837 30.3977C50.2837 29.5533 49.6081 28.864 48.7639 28.847L34.9661 28.8364Z"
    fill="#ffffff" fill-rule="evenodd" opacity="1" stroke="#ffffff" stroke-linecap="butt"
    stroke-linejoin="miter" stroke-width="6" />
</g>
</svg>
