<svg id="prize-active" xmlns="http://www.w3.org/2000/svg" xmlns:xlink="http://www.w3.org/1999/xlink"
    width="256.207" height="273.529" viewBox="0 0 256.207 273.529">
    <defs>
        <linearGradient id="linear-gradient" x1="0.167" y1="0.378" x2="0.942" y2="0.864"
            gradientUnits="objectBoundingBox">
            <stop offset="0" stop-color="#ff6b6b" />
            <stop offset="1" stop-color="#f08383" />
        </linearGradient>
        <linearGradient id="linear-gradient-2" x1="0.473" y1="0.27" x2="0.559" y2="0.63"
            gradientUnits="objectBoundingBox">
            <stop offset="0" stop-color="#eb4d4b" stop-opacity="0" />
            <stop offset="1" stop-color="#e94444" />
        </linearGradient>
        <linearGradient id="linear-gradient-3" x1="0.605" y1="0.346" x2="1.36" y2="-0.221"
            gradientUnits="objectBoundingBox">
            <stop offset="0" stop-color="#eb4d4b" stop-opacity="0" />
            <stop offset="1" stop-color="#c0392b" />
        </linearGradient>
        <linearGradient id="linear-gradient-4" x1="0.833" y1="0.378" x2="0.058" y2="0.864"
            xlink:href="#linear-gradient" />
        <linearGradient id="linear-gradient-5" x1="0.527" y1="0.27" x2="0.441" y2="0.63"
            xlink:href="#linear-gradient-2" />
        <linearGradient id="linear-gradient-6" x1="0.395" y1="0.346" x2="-0.36" y2="-0.221"
            xlink:href="#linear-gradient-3" />
        <linearGradient id="linear-gradient-7" x1="0.508" y1="0.566" x2="0.378" y2="-0.576"
            xlink:href="#linear-gradient-3" />
        <linearGradient id="linear-gradient-8" x1="0.492" y1="0.566" x2="0.622" y2="-0.576"
            xlink:href="#linear-gradient-3" />
        <linearGradient id="linear-gradient-9" x1="11.161" y1="1.654" x2="11.052" y2="-0.808"
            gradientUnits="objectBoundingBox">
            <stop offset="0" stop-color="#f69a9a" />
            <stop offset="1" stop-color="#ff3838" />
        </linearGradient>
        <linearGradient id="linear-gradient-10" x1="0.385" y1="0.132" x2="0.705" y2="1.156"
            gradientUnits="objectBoundingBox">
            <stop offset="0" stop-color="#d9b1ee" />
            <stop offset="1" stop-color="#814aa0" />
        </linearGradient>
        <linearGradient id="linear-gradient-11" x1="0.523" x2="0.527" y2="2.699"
            gradientUnits="objectBoundingBox">
            <stop offset="0" stop-color="#5b3374" stop-opacity="0" />
            <stop offset="1" stop-color="#8854d0" />
        </linearGradient>
        <linearGradient id="linear-gradient-12" y1="0.5" x2="1" y2="0.5"
            gradientUnits="objectBoundingBox">
            <stop offset="0" stop-color="#ff9ea3" />
            <stop offset="1" stop-color="#eb3b5a" />
        </linearGradient>
        <linearGradient id="linear-gradient-13" x1="0.5" y1="0.455" x2="0.5" y2="0.124"
            gradientUnits="objectBoundingBox">
            <stop offset="0" stop-color="#fc5c65" stop-opacity="0" />
            <stop offset="1" stop-color="#c0392b" />
        </linearGradient>
        <linearGradient id="linear-gradient-14" x1="0.5" y1="0.04" x2="0.5" y2="1.396"
            xlink:href="#linear-gradient-10" />
        <linearGradient id="linear-gradient-15" x1="0.244" y1="0.355" x2="0.853" y2="0.7"
            gradientUnits="objectBoundingBox">
            <stop offset="0" stop-color="#ff9eac" />
            <stop offset="1" stop-color="#eb4d4b" />
        </linearGradient>
        <linearGradient id="linear-gradient-16" x1="0.717" y1="0.794" x2="0.29" y2="0.097"
            xlink:href="#linear-gradient-3" />
        <linearGradient id="linear-gradient-17" x1="0.376" y1="0.225" x2="0.593" y2="0.532"
            gradientUnits="objectBoundingBox">
            <stop offset="0" stop-color="#f88787" />
            <stop offset="1" stop-color="#ff3838" />
        </linearGradient>
        <linearGradient id="linear-gradient-18" x1="2.544" y1="1.338" x2="1.268" y2="-0.895"
            gradientUnits="objectBoundingBox">
            <stop offset="0" stop-color="#ffc5c5" />
            <stop offset="1" stop-color="#ff3838" />
        </linearGradient>
    </defs>
    <path id="Path_457"
        d="M243.933,354.972H35.742A12.162,12.162,0,0,1,23.58,342.809v-126.8A12.162,12.162,0,0,1,35.742,203.85h208.19a12.162,12.162,0,0,1,12.162,12.162v126.8a12.162,12.162,0,0,1-12.162,12.163Z"
        transform="translate(-11.734 -81.443)" fill="#804ea1" />
    <path id="Path_458"
        d="M239.3,197.455H16.9A16.9,16.9,0,0,1,0,180.55V156.267a16.9,16.9,0,0,1,16.9-16.9H239.3a16.9,16.9,0,0,1,16.9,16.9V180.55A16.9,16.9,0,0,1,239.3,197.455Z"
        transform="translate(0 -51.352)" fill="#804ea1" />
    <path id="Path_433"
        d="M182.512,45.9V63.192a17.354,17.354,0,0,1-9.862,15.652l-23.208,11.1a13.234,13.234,0,0,1-18.892-10.721l-.9-9.765a22.823,22.823,0,0,1,2.506-12.692,17.739,17.739,0,0,0-.94-18.028,36.07,36.07,0,0,1-5.369-26.6A14.9,14.9,0,0,1,140.489,0h0a31.744,31.744,0,0,1,22.45,9.3l7.52,7.523A41.131,41.131,0,0,1,182.512,45.9Z"
        transform="translate(-62.316 0)" fill="url(#linear-gradient)" />
    <path id="Path_434"
        d="M183.681,66.67H131.43a36.451,36.451,0,0,0,2.879,5.25,17.727,17.727,0,0,1,.939,18.025,22.851,22.851,0,0,0-2.507,12.695l.9,9.766a13.234,13.234,0,0,0,18.889,10.72l23.209-11.107A17.345,17.345,0,0,0,185.6,96.37V79.078a41.054,41.054,0,0,0-1.919-12.408Z"
        transform="translate(-65.404 -33.177)" fill="url(#linear-gradient-2)" />
    <path id="Path_435"
        d="M183.491,83.154c0-15.447-13.662-27.97-30.516-27.97a32.011,32.011,0,0,0-20.292,7.087,36.4,36.4,0,0,0,2.248,3.931,17.741,17.741,0,0,1,.94,18.028,22.828,22.828,0,0,0-2.506,12.692l.754,8.214a32.163,32.163,0,0,0,18.857,5.988C169.829,111.123,183.491,98.6,183.491,83.154Z"
        transform="translate(-66.028 -27.461)" fill="url(#linear-gradient-3)" />
    <path id="Path_454"
        d="M125.225,45.9V63.192a17.354,17.354,0,0,0,9.862,15.652l23.208,11.1a13.234,13.234,0,0,0,18.892-10.721l.9-9.765a22.823,22.823,0,0,0-2.506-12.692,17.739,17.739,0,0,1,.94-18.028,36.07,36.07,0,0,0,5.369-26.6A14.9,14.9,0,0,0,167.248,0h0a31.744,31.744,0,0,0-22.45,9.3l-7.52,7.523A41.132,41.132,0,0,0,125.225,45.9Z"
        transform="translate(6.065 0)" fill="url(#linear-gradient-4)" />
    <path id="Path_455"
        d="M133.349,66.67H185.6a36.448,36.448,0,0,1-2.879,5.25,17.727,17.727,0,0,0-.939,18.025,22.851,22.851,0,0,1,2.507,12.695l-.9,9.766a13.234,13.234,0,0,1-18.889,10.72l-23.209-11.107A17.345,17.345,0,0,1,131.43,96.37V79.078a41.054,41.054,0,0,1,1.919-12.408Z"
        transform="translate(-0.14 -33.177)" fill="url(#linear-gradient-5)" />
    <path id="Path_456"
        d="M132.683,83.154c0-15.447,13.662-27.97,30.516-27.97a32.011,32.011,0,0,1,20.292,7.087,36.4,36.4,0,0,1-2.248,3.931,17.741,17.741,0,0,0-.94,18.028,22.827,22.827,0,0,1,2.506,12.692l-.754,8.214a32.163,32.163,0,0,1-18.857,5.988C146.345,111.123,132.683,98.6,132.683,83.154Z"
        transform="translate(1.339 -27.461)" fill="url(#linear-gradient-6)" />
    <ellipse id="Ellipse_54" cx="23.696" cy="13.797" rx="23.696" ry="13.797"
        transform="translate(128.216 42.629)" fill="url(#linear-gradient-7)" />
    <ellipse id="Ellipse_53" cx="23.696" cy="13.797" rx="23.696" ry="13.797"
        transform="translate(75.878 42.629)" fill="url(#linear-gradient-8)" />
    <path id="Path_439"
        d="M255.174,93.238a18.993,18.993,0,1,1-19.262-18.717,18.991,18.991,0,0,1,19.262,18.717Z"
        transform="translate(-108.081 -37.083)" fill="url(#linear-gradient-9)" />
    <path id="Path_440"
        d="M243.933,354.972H35.742A12.162,12.162,0,0,1,23.58,342.809v-126.8A12.162,12.162,0,0,1,35.742,203.85h208.19a12.162,12.162,0,0,1,12.162,12.162v126.8a12.162,12.162,0,0,1-12.162,12.163Z"
        transform="translate(-11.734 -101.443)" fill="url(#linear-gradient-10)" />
    <path id="Path_443"
        d="M23.58,383v48.959a12.162,12.162,0,0,0,12.162,12.162h208.19a12.162,12.162,0,0,0,12.162-12.162V383Z"
        transform="translate(-11.734 -190.594)" fill="url(#linear-gradient-11)" />
    <path id="Path_444"
        d="M248.651,357.65H212.386a6.578,6.578,0,0,1-6.578-6.578V210.43a6.578,6.578,0,0,1,6.578-6.578h36.265a6.578,6.578,0,0,1,6.578,6.578V351.072A6.578,6.578,0,0,1,248.651,357.65Z"
        transform="translate(-102.417 -101.444)" fill="url(#linear-gradient-12)" />
    <path id="Path_445"
        d="M205.81,210.424V323.9c10.323,10.587,20.66,21.128,30.5,31.067h17.634a6.539,6.539,0,0,0,1.289-3.9V210.424a6.578,6.578,0,0,0-6.578-6.578H212.388a6.578,6.578,0,0,0-6.578,6.578Z"
        transform="translate(-102.418 -101.441)" fill="url(#linear-gradient-13)" />
    <path id="Path_446"
        d="M239.3,197.455H16.9A16.9,16.9,0,0,1,0,180.55V156.267a16.9,16.9,0,0,1,16.9-16.9H239.3a16.9,16.9,0,0,1,16.9,16.9V180.55A16.9,16.9,0,0,1,239.3,197.455Z"
        transform="translate(0 -69.351)" fill="url(#linear-gradient-14)" />
    <path id="Path_450"
        d="M251.913,197.482h-42.78a3.321,3.321,0,0,1-3.321-3.321V136.651a3.321,3.321,0,0,1,3.321-3.321h42.78a3.321,3.321,0,0,1,3.321,3.321v57.511A3.321,3.321,0,0,1,251.913,197.482Z"
        transform="translate(-102.419 -66.35)" fill="url(#linear-gradient-15)" />
    <path id="Path_451"
        d="M255.233,136.651v57.511a3.321,3.321,0,0,1-3.321,3.321H216.068L205.81,187.224V136.651a2.756,2.756,0,0,1,.015-.291,3.319,3.319,0,0,1,3.306-3.029h42.781a3.319,3.319,0,0,1,3.306,3.029A2.76,2.76,0,0,1,255.233,136.651Z"
        transform="translate(-102.418 -66.35)" fill="url(#linear-gradient-16)" />
    <path id="Path_452"
        d="M197.772,127.414l-.4-.264a34.176,34.176,0,0,0-43.075,4.3l-13.409,13.409a3.019,3.019,0,0,0,2.135,5.154h1.554a9.3,9.3,0,0,1,9.3,9.3,3.019,3.019,0,0,0,5.154,2.135l30.121-30.121A13.455,13.455,0,0,1,197.772,127.414Z"
        transform="translate(-69.669 -60.433)" fill="url(#linear-gradient-17)" />
    <path id="Path_453"
        d="M255,127.414l.4-.264a34.176,34.176,0,0,1,43.075,4.3l13.409,13.409a3.019,3.019,0,0,1-2.135,5.154h-1.554a9.3,9.3,0,0,0-9.3,9.3,3.019,3.019,0,0,1-5.154,2.135L263.62,131.326a13.455,13.455,0,0,0-8.62-3.911Z"
        transform="translate(-126.897 -60.433)" fill="url(#linear-gradient-18)" />
</svg>
