<svg xmlns="http://www.w3.org/2000/svg" width="587.979" height="161.848"
    viewBox="0 0 587.979 161.848">
    <g id="roban" transform="translate(53.401 1.183)">
        <path id="Path_568"
            d="M605.541,135.713s-1.175,8.082-5.023,10.544-10.371,2.3-10.371,2.3H37.093s-6.343.5-9.865-1.836S23,136.228,23,136.228,438.914,135.713,605.541,135.713Z"
            transform="translate(-73.005 12.059)" fill="#c0392b" />
        <path id="Path_563"
            d="M9.954,0H529.586L471.73,75.344l58.856,73.217H-51.705L9.038,75.344-51.705,0Z"
            transform="translate(1.705 0.059)" fill="#eb3b5a" />
        <path id="Path_597"
            d="M474,75.881l7.275,9.106,52.31-69.449a10.646,10.646,0,0,0,1.923-4.494,13.718,13.718,0,0,0-.619-5.255L532.133-.183Z"
            transform="translate(-1 -1)" fill="#c0392b" />
        <path id="Path_598"
            d="M539,75.858l-7.7,9.129L476.59,15.7a10.646,10.646,0,0,1-1.923-4.494,13.718,13.718,0,0,1,.619-5.255l2.757-5.973Z"
            transform="translate(-528)" fill="#c0392b" />
        <path id="Path_564" d="M-43.5-2.007l553.836.689-9.5,12.427-534,.237Z"
            transform="translate(7.109 18.471)" fill="#fc5c65" />
        <path id="Path_565" d="M-30.2-1.986l533.337.3,10.593,12.883-554.9.151Z"
            transform="translate(4.964 120.471)" fill="#fc5c65" />
    </g>
</svg>
