<?xml version="1.0" encoding="UTF-8" standalone="no"?>
<!DOCTYPE svg PUBLIC "-//W3C//DTD SVG 1.1//EN" "http://www.w3.org/Graphics/SVG/1.1/DTD/svg11.dtd">
 <svg height="100%" stroke-miterlimit="10" style="fill-rule:nonzero;clip-rule:evenodd;stroke-linecap:round;stroke-linejoin:round;" version="1.1" viewBox="0 0 36.3294 35.9698" width="100%" xml:space="preserve" xmlns="http://www.w3.org/2000/svg" xmlns:xlink="http://www.w3.org/1999/xlink">
<defs/>
<g id="Untitled">
<path d="M2.29606 21.3869L30.3841 35.2087C31.7097 35.8909 33.3222 35.6783 34.4234 34.6762C35.5247 33.6741 35.881 32.0951 35.3161 30.7208L32.0681 22.5827C31.575 21.3578 30.4403 20.5054 29.1211 20.3691L20.5211 19.3524C19.9163 19.2746 19.4635 18.7622 19.4635 18.1555C19.4635 17.5488 19.9163 17.0364 20.5211 16.9587L29.1821 15.7648C30.4691 15.5857 31.566 14.7448 32.0681 13.5522L35.2561 5.64993C35.8231 4.27184 35.4715 2.68834 34.3738 1.67612C33.276 0.6639 31.6622 0.435261 30.3241 1.10235L2.35606 14.9242C1.1176 15.5237 0.326734 16.7688 0.314021 18.139C0.301308 19.5092 1.06893 20.7686 2.29606 21.3909L2.29606 21.3869Z" fill="#ffffff" fill-rule="nonzero" opacity="1" stroke="none"/>
</g>
</svg>
