<svg xmlns="http://www.w3.org/2000/svg" width="72.151" height="66.827" viewBox="0 0 72.151 66.827">
    <g id="taj" transform="translate(-414 -587)">
        <g id="result_4_" transform="translate(414 587)">
            <g id="Group_205" transform="translate(0)">
                <path id="Union_2"
                    d="M36.848,66.827H4.289a3.977,3.977,0,0,1-4.205-3.65l-.065-6.46L.108,54.2.084,51.4V23.765a2.573,2.573,0,0,1,4.025-2.7L15.491,34.759,34.616,1.294a2.57,2.57,0,0,1,4.462,0L58.2,34.759l9.839-13.691c1.934-1.438,4.62-1.359,4.025.984l0,.4a2.552,2.552,0,0,1,0,1.318L71.724,51.4,71.9,63.177a3.807,3.807,0,0,1-4.034,3.65Z"
                    fill="#fdcb6e" />
                <path id="Union_1"
                    d="M10.283,30.844A2.55,2.55,0,0,1,8.077,29.6L.366,16.745a2.572,2.572,0,0,1,0-2.646L8.077,1.247a2.57,2.57,0,0,1,4.407,0L20.2,14.1a2.572,2.572,0,0,1,0,2.646L12.485,29.6A2.556,2.556,0,0,1,10.283,30.844Z"
                    transform="translate(26.565 25.702)" fill="#ff5f17" />
            </g>
        </g>
    </g>
</svg>
