<?xml version="1.0" encoding="UTF-8" standalone="no"?>
<!DOCTYPE svg PUBLIC "-//W3C//DTD SVG 1.1//EN" "http://www.w3.org/Graphics/SVG/1.1/DTD/svg11.dtd">
<!-- Created with Vectornator (http://vectornator.io/) -->
<svg height="100%" stroke-miterlimit="10" style="fill-rule:nonzero;clip-rule:evenodd;stroke-linecap:round;stroke-linejoin:round;" version="1.1" viewBox="0 0 156.221 155.975" width="100%" xml:space="preserve" xmlns="http://www.w3.org/2000/svg"   xmlns:xlink="http://www.w3.org/1999/xlink">
<defs/>
<g id="Layer-22"  >
<path d="M67.203 15.004L126.38 15.004C132.917 15.004 138.216 20.3032 138.216 26.84L138.216 82.072C138.214 88.6073 132.915 93.904 126.38 93.904L67.203 93.904C60.6677 93.904 55.3692 88.6073 55.367 82.072L55.367 26.84C55.367 20.3032 60.6662 15.004 67.203 15.004Z" fill="#c4dcfc" fill-rule="evenodd" opacity="1" stroke="none"/>
<path d="M138.221 82.068L138.221 26.836C138.221 20.2992 132.922 15 126.385 15L67.208 15C60.6712 15 55.372 20.2992 55.372 26.836L55.372 29.795C55.372 65.2 81.425 93.9 113.563 93.9L126.385 93.9C132.92 93.9 138.219 88.6033 138.221 82.068Z" fill="#deeafd" fill-rule="evenodd" opacity="1" stroke="none"/>
<path d="M71.157 26.836L71.157 29.795C71.157 64.495 96.187 92.74 127.44 93.85C133.543 93.3073 138.222 88.1952 138.224 82.068L138.224 26.835C138.225 20.2979 132.925 14.9984 126.388 14.999L82.988 14.999C76.4512 14.999 71.152 20.2982 71.152 26.835L71.157 26.836Z" fill="#f8f7fe" fill-rule="evenodd" opacity="1" stroke="none"/>
<path d="M86.934 58.397C86.934 52.9498 91.3498 48.534 96.797 48.534C102.244 48.534 106.66 52.9498 106.66 58.397C106.66 63.8442 102.244 68.26 96.797 68.26C91.3498 68.26 86.934 63.8442 86.934 58.397Z" fill="#0f213b" fill-rule="evenodd" opacity="1" stroke="none"/>
<path d="M96.797 48.534C93.8157 48.542 91.0002 49.9067 89.147 52.242C90.3159 59.3232 95.8658 64.8731 102.947 66.042C106.217 63.4368 107.481 59.0471 106.095 55.1021C104.709 51.1572 100.978 48.5216 96.797 48.534Z" fill="#25364e" fill-rule="evenodd" opacity="1" stroke="none"/>
<path d="M96.797 48.535C96.1478 48.5365 95.5004 48.6018 94.864 48.73C94.852 48.994 94.824 49.254 94.824 49.522C94.827 55.9815 98.5436 61.8637 104.376 64.64C106.823 61.7099 107.348 57.6263 105.723 54.1722C104.097 50.7182 100.615 48.521 96.797 48.54L96.797 48.535Z" fill="#3c4c60" fill-rule="evenodd" opacity="1" stroke="none"/>
<path d="M106.659 36.699C106.659 31.2518 111.075 26.836 116.522 26.836C121.969 26.836 126.385 31.2518 126.385 36.699C126.385 42.1462 121.969 46.562 116.522 46.562C111.075 46.562 106.659 42.1462 106.659 36.699Z" fill="#0f213b" fill-rule="evenodd" opacity="1" stroke="none"/>
<path d="M116.522 26.836C113.541 26.844 110.725 28.2087 108.872 30.544C110.041 37.6254 115.591 43.1754 122.672 44.344C125.942 41.7388 127.206 37.3491 125.82 33.4041C124.434 29.4592 120.703 26.8237 116.522 26.836Z" fill="#25364e" fill-rule="evenodd" opacity="1" stroke="none"/>
<path d="M116.523 26.836C115.874 26.8375 115.226 26.9028 114.59 27.031C114.578 27.295 114.55 27.555 114.55 27.822C114.555 34.28 118.271 40.1603 124.102 42.936C126.549 40.0059 127.075 35.9223 125.449 32.4682C123.823 29.0142 120.341 26.817 116.523 26.836Z" fill="#3c4c60" fill-rule="evenodd" opacity="1" stroke="none"/>
<path d="M46.2939 42.8333L104.126 55.3793C110.514 56.7651 114.569 63.0673 113.183 69.4555L101.474 123.432C100.086 129.818 93.7851 133.871 87.3984 132.486L29.5666 119.94C23.1799 118.554 19.1247 112.255 20.5081 105.867L32.2177 51.8909C33.6035 45.5027 39.9057 41.4475 46.2939 42.8333Z" fill="#c4dcfc" fill-rule="evenodd" opacity="1" stroke="none"/>
<path d="M101.536 123.408L113.219 69.426C114.601 63.0375 110.543 56.738 104.155 55.355L46.316 42.837C39.9272 41.4541 33.627 45.5122 32.244 51.901L31.619 54.793C24.129 89.393 43.519 122.963 74.932 129.761L87.464 132.473C93.8525 133.855 100.152 129.797 101.535 123.409L101.536 123.408Z" fill="#deeafd" fill-rule="evenodd" opacity="1" stroke="none"/>
<path d="M47.669 55.238L47.043 58.13C39.703 92.046 58.193 124.944 88.504 132.642C94.5839 133.402 100.238 129.395 101.536 123.407L113.219 69.425C114.602 63.0364 110.544 56.7365 104.155 55.354L61.739 46.174C55.3507 44.7918 49.0515 48.8498 47.669 55.238Z" fill="#f8f7fe" fill-rule="evenodd" opacity="1" stroke="none"/>
<path d="M80.062 74.476C80.062 69.0288 84.4778 64.613 89.925 64.613C95.3722 64.613 99.788 69.0288 99.788 74.476C99.788 79.9232 95.3722 84.339 89.925 84.339C84.4778 84.339 80.062 79.9232 80.062 74.476Z" fill="#0f213b" fill-rule="evenodd" opacity="1" stroke="none"/>
<path d="M92.01 64.835C89.0949 64.2127 86.055 64.9509 83.75 66.841C83.3927 74.0128 87.6459 80.6147 94.324 83.254C98.0765 81.4012 100.243 77.3746 99.7223 73.2222C99.2013 69.0698 96.1069 65.7033 92.013 64.835L92.01 64.835Z" fill="#25364e" fill-rule="evenodd" opacity="1" stroke="none"/>
<path d="M92.011 64.835C91.3764 64.6993 90.7299 64.6262 90.081 64.617C90.013 64.873 89.931 65.117 89.875 65.381C88.5101 71.6961 90.8985 78.2332 96.013 82.181C99.0273 79.8357 100.407 75.9543 99.5482 72.2329C98.6899 68.5114 95.75 65.6262 92.013 64.838L92.011 64.835Z" fill="#3c4c60" fill-rule="evenodd" opacity="1" stroke="none"/>
<path d="M41.53 66.258C41.53 60.8108 45.9458 56.395 51.393 56.395C56.8402 56.395 61.256 60.8108 61.256 66.258C61.256 71.7052 56.8402 76.121 51.393 76.121C45.9458 76.121 41.53 71.7052 41.53 66.258Z" fill="#0f213b" fill-rule="evenodd" opacity="1" stroke="none"/>
<path d="M53.478 56.619C50.5629 55.9967 47.523 56.7349 45.218 58.625C44.8604 65.7963 49.1127 72.3981 55.79 75.038C59.5425 73.1852 61.7093 69.1586 61.1883 65.0062C60.6673 60.8538 57.5729 57.4873 53.479 56.619L53.478 56.619Z" fill="#25364e" fill-rule="evenodd" opacity="1" stroke="none"/>
<path d="M53.479 56.618C52.8444 56.4822 52.1979 56.4092 51.549 56.4C51.481 56.655 51.399 56.9 51.343 57.164C49.9781 63.4791 52.3665 70.0162 57.481 73.964C60.4946 71.6186 61.8734 67.7376 61.0152 64.0165C60.1569 60.2955 57.2175 57.4105 53.481 56.622L53.479 56.618Z" fill="#3c4c60" fill-rule="evenodd" opacity="1" stroke="none"/>
<path d="M33.933 100.882C33.933 95.4348 38.3488 91.019 43.796 91.019C49.2432 91.019 53.659 95.4348 53.659 100.882C53.659 106.329 49.2432 110.745 43.796 110.745C38.3488 110.745 33.933 106.329 33.933 100.882Z" fill="#0f213b" fill-rule="evenodd" opacity="1" stroke="none"/>
<path d="M45.881 91.24C42.9659 90.6177 39.926 91.3559 37.621 93.246C37.2637 100.417 41.5155 107.018 48.192 109.658C51.9445 107.805 54.1113 103.779 53.5903 99.6262C53.0693 95.4738 49.9749 92.1073 45.881 91.239L45.881 91.24Z" fill="#25364e" fill-rule="evenodd" opacity="1" stroke="none"/>
<path d="M45.882 91.24C45.2474 91.1043 44.6009 91.0312 43.952 91.022C43.884 91.278 43.802 91.522 43.746 91.786C42.3811 98.1011 44.7695 104.638 49.884 108.586C52.8982 106.241 54.2775 102.359 53.4192 98.6379C52.5609 94.9164 49.621 92.0312 45.884 91.243L45.882 91.24Z" fill="#3c4c60" fill-rule="evenodd" opacity="1" stroke="none"/>
<path d="M72.115 109.66C72.115 104.213 76.5308 99.797 81.978 99.797C87.4252 99.797 91.841 104.213 91.841 109.66C91.841 115.107 87.4252 119.523 81.978 119.523C76.5308 119.523 72.115 115.107 72.115 109.66Z" fill="#0f213b" fill-rule="evenodd" opacity="1" stroke="none"/>
<path d="M84.063 100.021C81.1479 99.3987 78.108 100.137 75.803 102.027C75.4454 109.198 79.6977 115.8 86.375 118.44C90.1264 116.586 92.2922 112.56 91.7712 108.408C91.2503 104.257 88.157 100.89 84.064 100.021L84.063 100.021Z" fill="#25364e" fill-rule="evenodd" opacity="1" stroke="none"/>
<path d="M84.064 100.021C83.4294 99.8851 82.7829 99.8121 82.134 99.803C82.066 100.058 81.984 100.303 81.927 100.567C80.5621 106.882 82.9505 113.419 88.065 117.367C91.0792 115.022 92.4585 111.14 91.6002 107.419C90.7419 103.697 87.802 100.812 84.065 100.024L84.064 100.021Z" fill="#3c4c60" fill-rule="evenodd" opacity="1" stroke="none"/>
</g>
</svg>
