<svg id="user" xmlns="http://www.w3.org/2000/svg" width="32.322" height="43.096" viewBox="0 0 32.322 43.096">
  <path id="Path_187" d="M16.774,21.548A10.774,10.774,0,1,0,6,10.774,10.774,10.774,0,0,0,16.774,21.548Zm0-17.957a7.183,7.183,0,1,1-7.183,7.183,7.183,7.183,0,0,1,7.183-7.183Z" transform="translate(-0.613)" fill="#1257a2"/>
  <path id="Path_188" d="M19.161,14A16.179,16.179,0,0,0,3,30.161a1.8,1.8,0,1,0,3.591,0,12.57,12.57,0,0,1,25.139,0,1.8,1.8,0,0,0,3.591,0A16.179,16.179,0,0,0,19.161,14Z" transform="translate(-3 11.139)" fill="#1257a2"/>
</svg>
