<svg xmlns="http://www.w3.org/2000/svg" width="116.309" height="129.935" viewBox="0 0 116.309 129.935">
  <g id="user-place-holder" transform="translate(0 69.885)">
    <path id="Path_622" d="M144.526,0a33.736,33.736,0,1,0,33.736,33.736A33.825,33.825,0,0,0,144.526,0Z" transform="translate(-86.366 -69.885)" fill="#fff"/>
    <path id="Path_623" d="M140.231,272.386a31.453,31.453,0,0,0-3.388-6.187,41.933,41.933,0,0,0-29.021-18.268,6.21,6.21,0,0,0-4.272,1.031,35.96,35.96,0,0,1-42.428,0,5.528,5.528,0,0,0-4.272-1.031A41.627,41.627,0,0,0,27.829,266.2a36.264,36.264,0,0,0-3.388,6.187,3.133,3.133,0,0,0,.147,2.8,58.767,58.767,0,0,0,3.978,5.893,55.987,55.987,0,0,0,6.777,7.66,88.3,88.3,0,0,0,6.777,5.893,67.184,67.184,0,0,0,80.143,0,64.768,64.768,0,0,0,6.777-5.893,68.022,68.022,0,0,0,6.777-7.66,51.64,51.64,0,0,0,3.978-5.893,2.514,2.514,0,0,0,.442-2.8Z" transform="translate(-24.174 -247.841)" fill="#fff"/>
  </g>
</svg>
