<svg xmlns="http://www.w3.org/2000/svg" width="76.284" height="84.111" viewBox="0 0 76.284 84.111">
  <g id="user-menu-deactive" transform="translate(-434 -543.981)">
    <path id="result_3_" d="M54.934,4A19.982,19.982,0,0,1,74.888,23.954c.083,16.133-18.613,25.621-31.51,16.237C27.709,29.006,35.493,4.134,54.934,4Z" transform="translate(417.408 539.981)" fill="#0194fe"/>
    <path id="result_3_2" d="M71.1,92.284a37.8,37.8,0,0,0-8.593-6.452,25.63,25.63,0,0,1-2.229,2.141c-8.8,7.986-24.129,8.183-33.142.41a23.253,23.253,0,0,1-2.258-2.067A37.976,37.976,0,0,0,5.99,119.252a8,8,0,0,0,7.992,7.977h60.3a8,8,0,0,0,7.992-7.977A37.891,37.891,0,0,0,71.1,92.284Z" transform="translate(428.01 500.863)" fill="#0194fe"/>
  </g>
</svg>
