<svg xmlns="http://www.w3.org/2000/svg" width="56.938" height="56.938" viewBox="0 0 56.938 56.938">
    <g id="win-left-image" transform="translate(0)">
        <path id="Path_671"
            d="M330.873,251.071a17.262,17.262,0,0,0-19.3.729l-1.763,1.309,2.492,4.582,1.97-1.343a12.006,12.006,0,0,1,13.8-.832,2.627,2.627,0,1,0,2.8-4.446Z"
            transform="translate(-275.174 -220.863)" fill="#938bd8" />
        <path id="Path_672"
            d="M280.352,30.793c-.034-.034-.069-.068-.1-.1a2.114,2.114,0,0,0-2.388-.4c-1.246.576-3.3.353-5.746,2.8a8.453,8.453,0,0,0-2.43,4.542,4.316,4.316,0,0,1-3.552,3.552,8.877,8.877,0,0,0-6.947,6.863,4.083,4.083,0,0,1-1.231,2.456,5.051,5.051,0,0,1-.6.518l-1.349,1.365,3.039,3.3,1.6-1.41a9.165,9.165,0,0,0,2.189-2.711,9.718,9.718,0,0,0,.8-2.35,4.313,4.313,0,0,1,3.551-3.552,8.882,8.882,0,0,0,6.974-6.973,4.313,4.313,0,0,1,3.552-3.552,10.637,10.637,0,0,0,1.937-.605A2.3,2.3,0,0,0,280.352,30.793Z"
            transform="translate(-227.539 -27.497)" fill="#7ee6fd" />
        <path id="Path_673"
            d="M182.058,8.738a2.627,2.627,0,1,0-4.446,2.8,12,12,0,0,1-.4,13.229l-.94,1.577,4.633,2.492.931-1.526a17.261,17.261,0,0,0,.223-18.571Z"
            transform="translate(-156.938 -7.498)" fill="#15dfb5" />
        <path id="Path_674"
            d="M311.57,264l-1.763,1.309,2.492,4.582,1.97-1.343a11.965,11.965,0,0,1,2.982-1.746,43.607,43.607,0,0,0-2.7-4.553A17.27,17.27,0,0,0,311.57,264Z"
            transform="translate(-275.174 -233.061)" fill="#786acd" />
        <path id="Path_675"
            d="M257.955,189.271a5.051,5.051,0,0,1-.6.518l-1.349,1.365,3.039,3.3c1.77-1.561,1.825-1.592,2.162-1.929a8.686,8.686,0,0,0,1.63-2.193,43.882,43.882,0,0,0-3.651-3.517A4.083,4.083,0,0,1,257.955,189.271Z"
            transform="translate(-227.539 -166.272)" fill="#00d5fd" />
        <path id="Path_676"
            d="M176.272,136.019l4.633,2.492a28.1,28.1,0,0,0,2.528-4.6,43.534,43.534,0,0,0-4.657-2.551,11.938,11.938,0,0,1-1.564,3.077Z"
            transform="translate(-156.938 -117.173)" fill="#00d297" />
        <g id="Group_375" transform="translate(31.454 0.863)">
            <circle id="Ellipse_87" cx="2.157" cy="2.157" r="2.157"
                transform="translate(13.834 40.015) rotate(-76.7)" fill="#15dfb5" />
            <path id="Path_679"
                d="M433.888,139.1a2.336,2.336,0,0,1-2.023,3.5h-2.788a2.336,2.336,0,0,1-2.023-3.5l1.4-2.416a2.335,2.335,0,0,1,4.044,0Z"
                transform="translate(-410.162 -121.712)" fill="#15dfb5" />
            <path id="Path_680"
                d="M288.74,17.684a2.336,2.336,0,0,1-1.047,3.907L285,22.312a2.334,2.334,0,0,1-2.86-2.86l.721-2.694a2.336,2.336,0,0,1,3.907-1.047Z"
                transform="translate(-282.057 -15.027)" fill="#15dfb5" />
        </g>
        <path id="Path_681"
            d="M48.552,167.168a40.219,40.219,0,0,0-24.084-24.084,6.792,6.792,0,0,0-8.876,4.626L7.71,176.885a5.748,5.748,0,0,0,7.041,7.041l29.174-7.882a6.794,6.794,0,0,0,4.626-8.876Z"
            transform="translate(-7.508 -127.189)" fill="#fce75f" />
        <path id="Path_682"
            d="M12.042,180.33l8.467-31.341a7.277,7.277,0,0,1,5.616-5.263q-.82-.339-1.654-.642A6.792,6.792,0,0,0,15.6,147.71L7.714,176.885a5.757,5.757,0,0,0,4.478,7.144A6.1,6.1,0,0,1,12.042,180.33Z"
            transform="translate(-7.511 -127.189)" fill="#ffce59" />
        <path id="Path_683"
            d="M33.484,301.36l-1.759,6.511a24.263,24.263,0,0,1,13.987,13.987l6.511-1.759A30.838,30.838,0,0,0,33.484,301.36Z"
            transform="translate(-28.951 -267.694)" fill="#ff9389" />
        <path id="Path_684"
            d="M33.484,301.36l-1.759,6.511a20.1,20.1,0,0,1,4.629,2.33l1.829-6.772A25.4,25.4,0,0,0,33.484,301.36Z"
            transform="translate(-28.951 -267.694)" fill="#ff675a" />
        <path id="Path_685"
            d="M247.1,333.376c1.373,1.371,1.6,3.37.508,4.463s-3.091.868-4.464-.5-1.6-3.37-.508-4.463S245.725,332,247.1,333.376Z"
            transform="translate(-215.086 -294.982)" fill="#fdafbf" />
        <path id="Path_687"
            d="M129.465,215.856c1.373,1.372,1.6,3.37.508,4.464s-3.092.867-4.464-.5-1.6-3.37-.508-4.464S128.091,214.484,129.465,215.856Z"
            transform="translate(-110.928 -190.926)" fill="#fdafbf" />
    </g>
</svg>
