<svg id="win-star-image" xmlns="http://www.w3.org/2000/svg" width="267.427" height="272.161"
    viewBox="0 0 267.427 272.161">
    <g id="Group_372" transform="translate(0 65.789)">
        <g id="Group_369" transform="translate(0 102.448)">
            <path id="Path_660"
                d="M107.375,395.554a13.7,13.7,0,0,1-5.9,3.338L80.4,404.656A22.3,22.3,0,0,1,58.39,398.7L47.367,387.22a22.3,22.3,0,0,1-5.055-22.235l6.819-22.409-27.275,7.05a13.767,13.767,0,1,1-7.263-26.559L35.669,317.3a22.3,22.3,0,0,1,22.011,5.955L68.7,334.74a22.3,22.3,0,0,1,5.056,22.235l-7.887,22.617,28.343-7.258a13.769,13.769,0,0,1,13.159,23.22Z"
                transform="translate(-4.453 -316.493)" fill="#8bb6ef" />
            <path id="Path_661"
                d="M81.547,360.267l-.718,2.36-6.1,20.049a22.388,22.388,0,0,0,2.91,19.618c6.228-1.424,14.511-3.228,20.651-5.013l1.011-2.9,6.876-19.718a22.362,22.362,0,0,0-3.488-20.407C96.411,356.123,87.851,358.5,81.547,360.267Z"
                transform="translate(-36.87 -334.184)" fill="#8388ef" />
        </g>
        <g transform="translate(184.412 82.636)">
            <path
                d="M360.016,381.2a13.7,13.7,0,0,0,6.716.9l21.705-2.52a22.3,22.3,0,0,0,18.2-13.74l5.941-14.766a22.3,22.3,0,0,0-3.61-22.515l-14.691-18.244,27.935-3.641a13.767,13.767,0,1,0-3.176-27.351l-21.705,2.52a22.3,22.3,0,0,0-18.2,13.74l-5.941,14.766a22.3,22.3,0,0,0,3.61,22.514L392.56,350.9l-29,3.846a13.769,13.769,0,0,0-3.541,26.455Z"
                transform="translate(-351.376 -279.223)" fill="#a183e2" />
            <path
                d="M412.108,337.7l1.547,1.922L426.8,355.945a22.387,22.387,0,0,1,4.623,19.287c-6.31,1-14.667,2.422-21.029,3.058l-2.02-2.312-13.74-15.727a22.361,22.361,0,0,1-4.382-20.233c6.52-.612,15.349-1.6,21.857-2.317Z"
                transform="translate(-369.208 -306.616)" fill="#9762e2" />
        </g>
        <g id="Group_371" transform="translate(79.77)">
            <path id="Path_664"
                d="M206.459,241.929a13.7,13.7,0,0,0,5.22-4.32l12.9-17.64a22.3,22.3,0,0,0,2.279-22.688l-6.8-14.391a22.3,22.3,0,0,0-18.975-12.646l-23.368-1.613,16.306-22.973a13.767,13.767,0,0,0-22.228-16.25l-12.9,17.64a22.3,22.3,0,0,0-2.279,22.688l6.8,14.391a22.3,22.3,0,0,0,18.974,12.646l23.943.69-16.881,23.9a13.769,13.769,0,0,0,17.007,20.57Z"
                transform="translate(-154.52 -123.765)" fill="#ffa585" />
            <path id="Path_665"
                d="M185.267,210.114l1.3-1.946,23.368,1.613a22.388,22.388,0,0,1,17.294,9.71c-3.156,4.723-6.495,9.322-9.907,13.869a18.532,18.532,0,0,0-2.135,3.64l-23.943-.69a22.362,22.362,0,0,1-17.825-10.53C177.4,220.58,181.369,215.374,185.267,210.114Z"
                transform="translate(-163.372 -163.302)" fill="#ef7c85" />
        </g>
        <path id="Path_666"
            d="M54.279,240.689l-11.543-5.772a6.972,6.972,0,0,1-3.118-9.353l5.772-11.543a6.971,6.971,0,0,1,9.353-3.118l11.543,5.772a6.972,6.972,0,0,1,3.118,9.353l-5.772,11.543a6.971,6.971,0,0,1-9.353,3.118Z"
            transform="translate(-20.58 -164.238)" fill="#ffe266" />
        <path id="Path_667"
            d="M245.326,459.565l12.409-3.545a6.971,6.971,0,0,1,8.618,4.788l3.545,12.409a6.971,6.971,0,0,1-4.788,8.618L252.7,485.381a6.971,6.971,0,0,1-8.618-4.788l-3.545-12.409A6.972,6.972,0,0,1,245.326,459.565Z"
            transform="translate(-114.917 -279.279)" fill="#ef8bbd" />
        <path id="Path_668"
            d="M380.182,188.24l-16.295,9.408A10.163,10.163,0,0,1,350,193.928L340.6,177.633a10.163,10.163,0,0,1,3.72-13.883l16.295-9.408a10.163,10.163,0,0,1,13.883,3.72l9.408,16.294A10.164,10.164,0,0,1,380.182,188.24Z"
            transform="translate(-161.276 -137.45)" fill="#78eac4" />
    </g>
    <path id="Path_669"
        d="M71.9,48.2l4.49,12.626a2.027,2.027,0,0,0,1.053,1.185l11.218,5.054a2.238,2.238,0,0,1,0,3.953L77.445,76.076a2.025,2.025,0,0,0-1.053,1.185L71.9,89.887a1.821,1.821,0,0,1-3.512,0L63.9,77.261a2.027,2.027,0,0,0-1.053-1.185L51.628,71.022a2.238,2.238,0,0,1,0-3.953l11.218-5.054A2.023,2.023,0,0,0,63.9,60.83L68.39,48.2a1.822,1.822,0,0,1,3.513,0Z"
        transform="translate(-25.995 -21.954)" fill="#cab4ef" />
    <path id="Path_670"
        d="M392.154.993l3.331,9.366a1.5,1.5,0,0,0,.781.879l8.321,3.749a1.66,1.66,0,0,1,0,2.933l-8.321,3.749a1.505,1.505,0,0,0-.781.879l-3.331,9.366a1.351,1.351,0,0,1-2.605,0l-3.331-9.366a1.5,1.5,0,0,0-.781-.879l-8.321-3.749a1.66,1.66,0,0,1,0-2.933l8.321-3.749a1.505,1.505,0,0,0,.781-.879L389.548.993a1.351,1.351,0,0,1,2.605,0Z"
        transform="translate(-178.609 0)" fill="#ffc7b6" />
    <circle cx="9.805" cy="9.805" fill="#8bb6ef" id="Ellipse_83" r="9.805"
        transform="translate(151.229 44.283) rotate(-22.514)" />
    <circle cx="4.23" cy="4.23" fill="#ef8bbd" id="Ellipse_84" r="4.23"
        transform="translate(71.31 16.452)" />
    <circle cx="4.23" cy="4.23" fill="#ffe266" id="Ellipse_85" r="4.23"
        transform="translate(245.805 81.092)" />
</svg>
