<svg xmlns="http://www.w3.org/2000/svg" width="53.298" height="53.298" viewBox="0 0 53.298 53.298">
    <path id="world"
        d="M26.649,0A26.649,26.649,0,1,0,53.3,26.649,26.649,26.649,0,0,0,26.649,0ZM48.856,26.649a22.07,22.07,0,0,1-3.691,12.232l-2.647-2.649a1.11,1.11,0,0,1-.324-.784V33.311a6.662,6.662,0,0,0-6.662-6.662H28.87a2.221,2.221,0,0,1-2.221-2.221v-1.11a1.11,1.11,0,0,1,1.11-1.11,5.552,5.552,0,0,0,5.552-5.552V14.435a1.11,1.11,0,0,1,1.11-1.11h3.062A5.587,5.587,0,0,0,41.408,11.7l.837-.837A22.139,22.139,0,0,1,48.856,26.649ZM4.55,28.788,11.563,35.8a6.613,6.613,0,0,0,4.712,1.952h5.932a2.221,2.221,0,0,1,2.221,2.221v8.77A22.243,22.243,0,0,1,4.55,28.788ZM28.87,48.743v-8.77a6.662,6.662,0,0,0-6.662-6.662H16.276A2.221,2.221,0,0,1,14.7,32.66l-9.9-9.9a22.159,22.159,0,0,1,33.962-14.7l-.5.5a1.126,1.126,0,0,1-.784.324H34.422a5.552,5.552,0,0,0-5.552,5.552v2.221a1.11,1.11,0,0,1-1.11,1.11,5.552,5.552,0,0,0-5.552,5.552v1.11A6.662,6.662,0,0,0,28.87,31.09h6.662a2.221,2.221,0,0,1,2.221,2.221v2.136a5.587,5.587,0,0,0,1.626,3.924l2.969,2.969a22.143,22.143,0,0,1-13.478,6.4Z"
        fill="#0abde3" />
</svg>
