<?xml version="1.0" encoding="UTF-8" standalone="no"?>
<!DOCTYPE svg PUBLIC "-//W3C//DTD SVG 1.1//EN" "http://www.w3.org/Graphics/SVG/1.1/DTD/svg11.dtd">
<!-- Created with Vectornator (http://vectornator.io/) -->
<svg height="100%" stroke-miterlimit="10" style="fill-rule:nonzero;clip-rule:evenodd;stroke-linecap:round;stroke-linejoin:round;" version="1.1" viewBox="0 0 80.079 70.382" width="100%" xml:space="preserve" xmlns="http://www.w3.org/2000/svg"  xmlns:xlink="http://www.w3.org/1999/xlink">
<defs>
<linearGradient gradientTransform="matrix(1 0 0 1 0 -69.604)" gradientUnits="userSpaceOnUse" id="LinearGradient" x1="40.0395" x2="40.0395" y1="42.2339" y2="7.15472">
<stop offset="0" stop-color="#ffe59a"/>
<stop offset="1" stop-color="#ffffd5"/>
</linearGradient>
<linearGradient gradientTransform="matrix(1 0 0 1 -51.459 -31)" gradientUnits="userSpaceOnUse" id="LinearGradient_2" x1="40.0405" x2="40.0405" y1="70.382" y2="0">
<stop offset="0" stop-color="#fd5900"/>
<stop offset="1" stop-color="#ffde00"/>
</linearGradient>
</defs>
<clipPath id="ArtboardFrame">
<rect height="70.382" width="80.079" x="0" y="0"/>
</clipPath>
<g clip-path="url(#ArtboardFrame)" id="Group-328" >
<path d="M50.189 27.947L49.552 24.226L52.2 21.615C53.5247 20.382 54.0082 18.4893 53.437 16.772C52.8697 15.0991 51.4269 13.8747 49.684 13.587L45.917 13.019L44.254 9.65101C43.4111 8.11026 41.7941 7.15285 40.0378 7.15472C38.2816 7.1566 36.6666 8.11746 35.827 9.66001L34.168 13.019L30.36 13.592C28.6377 13.8887 27.2155 15.1034 26.653 16.758C26.0778 18.4538 26.5389 20.3293 27.835 21.565L30.529 24.227L29.892 27.952C29.6121 29.6906 30.3306 31.4394 31.752 32.479C33.1773 33.5339 35.0794 33.6833 36.652 32.864L40.038 31.123L43.323 32.809C44.8998 33.7142 46.8652 33.5878 48.313 32.488C49.7431 31.4481 50.4675 29.6928 50.187 27.947L50.189 27.947ZM30.138 38.242L8.171 25.658C6.11192 24.582 4.78507 22.4874 4.692 20.166C4.692 16.599 8.006 13.697 11.887 13.697C13.3324 13.6873 14.7488 14.1018 15.961 14.889C17.0201 15.5787 18.4282 15.3635 19.233 14.389C19.5941 13.9301 19.7415 13.3386 19.6381 12.7639C19.5347 12.1893 19.1904 11.6863 18.692 11.382C16.6703 10.0633 14.3057 9.36787 11.892 9.382C5.417 9.385 0 14.22 0 20.166C0.110523 24.0188 2.28225 27.5153 5.687 29.322L27.654 41.906C28.7508 42.534 30.1445 42.2363 30.889 41.215C31.2148 40.7291 31.3189 40.1277 31.1755 39.5605C31.0321 38.9933 30.6546 38.5137 30.137 38.241L30.138 38.242ZM68.193 9.385C65.7793 9.37087 63.4147 10.0663 61.393 11.385C60.8926 11.6884 60.5463 12.1917 60.4419 12.7675C60.3375 13.3433 60.485 13.9363 60.847 14.396C61.6516 15.3709 63.06 15.5861 64.119 14.896C65.3303 14.1059 66.7468 13.6887 68.193 13.696C72.074 13.696 75.388 16.596 75.388 20.165C75.2951 22.4862 73.9687 24.5807 71.91 25.657L49.942 38.242C49.4247 38.5147 49.0474 38.9941 48.904 39.5611C48.7606 40.128 48.8646 40.7291 49.19 41.215C49.9345 42.2363 51.3282 42.534 52.425 41.906L74.392 29.322C77.7964 27.5155 79.9681 24.0195 80.079 20.167C80.079 14.22 74.663 9.385 68.193 9.385Z" fill="url(#LinearGradient)" fill-rule="evenodd" opacity="1" stroke="none"/>
<path d="M68.193 0L11.887 0C10.5913-3.39409e-08 9.541 1.05034 9.541 2.346C9.541 3.64166 10.5913 4.692 11.887 4.692C13.2093 4.68481 14.3041 5.71753 14.374 7.038C15.594 23.273 18.831 44.622 33.002 46.738L33.002 58.652C33.0044 60.5193 32.2637 62.3109 30.9433 63.6313C29.6229 64.9517 27.8313 65.6924 25.964 65.69C24.6683 65.69 23.618 66.7403 23.618 68.036C23.618 69.3317 24.6683 70.382 25.964 70.382L54.117 70.382C55.4127 70.382 56.463 69.3317 56.463 68.036C56.463 66.7403 55.4127 65.69 54.117 65.69C52.2497 65.6924 50.4581 64.9517 49.1377 63.6313C47.8173 62.3109 47.0766 60.5193 47.079 58.652L47.079 46.734C61.249 44.623 64.487 23.273 65.707 6.992C65.7974 5.68831 66.8872 4.68041 68.194 4.692C69.4897 4.692 70.54 3.64166 70.54 2.346C70.54 1.05034 69.4897 7.32933e-07 68.194 7.89568e-07L68.193 0ZM50.593 19.895L47.031 23.414L47.876 28.341C48.0059 29.2076 47.6447 30.0748 46.938 30.593C46.237 31.1419 45.2748 31.216 44.498 30.781L40.04 28.481L35.582 30.781C34.8001 31.1921 33.8517 31.1191 33.142 30.593C32.4353 30.0748 32.0741 29.2076 32.204 28.341L33.049 23.414L29.483 19.895C28.8286 19.2856 28.5901 18.3503 28.873 17.502C29.1584 16.6652 29.8785 16.0513 30.75 15.902L35.724 15.151L37.929 10.7C38.3739 9.9581 39.1754 9.5041 40.0405 9.5041C40.9056 9.5041 41.7071 9.9581 42.152 10.7L44.357 15.158L49.331 15.909C50.2025 16.0583 50.9226 16.6722 51.208 17.509C51.4876 18.3554 51.249 19.2872 50.597 19.895L50.593 19.895Z" fill="url(#LinearGradient_2)" fill-rule="evenodd" opacity="1" stroke="none"/>
</g>
</svg>
